<?xml version="1.0" encoding="utf-8"?>
<!-- Generator: Adobe Illustrator 18.0.0, SVG Export Plug-In . SVG Version: 6.00 Build 0)  -->
<!DOCTYPE svg PUBLIC "-//W3C//DTD SVG 1.1//EN" "http://www.w3.org/Graphics/SVG/1.1/DTD/svg11.dtd">
<svg version="1.1" id="Layer_1" xmlns="http://www.w3.org/2000/svg" xmlns:xlink="http://www.w3.org/1999/xlink" x="0px" y="0px"
	 viewBox="0 0 498 514" enable-background="new 0 0 498 514" xml:space="preserve">
<g>
	<g>
		<path fill="#FFC9D7" d="M159.2,161.4c-7.9,8.4-17.2,14.9-23.9,24.7c-6.9,10.1-11.8,21.6-15.9,33.1c-8.5,24.1-12.8,50.1-9.3,75.6
			c3.5,25.7,15.6,47.6,36.4,63.2c24.4,18.3,61.7,24.1,80-5.6c6.2-10,6.5-24.7,0-34.7c-6.1-9.4-13.5-16-24.2-19.6
			c-4-1.3-11-3.3-12.6-4.4c-7.1-4.8-11.2-15.7-12.8-25.2c-2.4-14.4-1.6-30.2-0.6-44.7c1-15.5,0.2-34.7,5.2-49.4
			C186.1,161.7,168.1,151.9,159.2,161.4L159.2,161.4z"/>
	</g>
	<g>
		<path fill="#FFC9D7" d="M182.5,239.3c-0.5,0.9-4.7,11.2-6.2,11.7c-19.3,5.6,4.8,32.6,12.3,12.3c5.9-16.2,23.1-39,42.3-40.7
			c-0.5-3.5-1-7.1-1.4-10.6c-24.1,9-61.9,33.1-45.3,64.1c8.6,16,26.5,17.1,38.4,28.8c10.4,10.2,19.1,17,34.8,14.9
			c33-4.3,48.1-49.1,35.2-76.7c-16.1-34.3-59.7-35.8-87.7-17.2c-3.5,2.3-2.1,7.6,2.1,7.9c19,1,50.3-2.9,62.4,15.5
			c10.7,16.3-3.4,58-27,44.8c-4.9-2.8-8.4-7-13.6-9.5c-8.7-4.1-18.5-6.3-23.3-15.8c-9-17.9,20.1-35.8,29.3-47.7
			c2.7-3.5,1.3-9.3-3.8-9.2c-16.4,0.2-28-1.1-41.3,10.4c-11.5,10-19.1,23.5-20.6,38.6c5-2.9,10-5.7,15-8.6c1.3-3.6,2.1-7.3,2.4-11.1
			C187,238.7,183.6,237.1,182.5,239.3L182.5,239.3z"/>
	</g>
	<g>
		<path fill="#FFC9D7" d="M270.9,161c-16-3.6-31-7.7-47.4-5.7c-17.8,2.2-34.9,8.1-49.7,18.3c-27.5,18.9-47.3,50.7-51.9,83.7
			c17.3,2.3,34.5,4.7,51.8,7c1.5-28.4,31.4-46.1,57.2-47c16.8-0.6,32.6,4,48.2,10c6.5,2.5,13.7,4.9,19.2,9.1
			c7.9,6,9.8,13.7,13.6,22.1c1.5,3.3,6.8,3,8.4,0c11.8-22.4,12.3-50-7.1-68.1c-20.2-18.8-52.4-25.8-79.3-25.4
			c-53.8,0.9-103.7,37.5-112,92.3c-2.2,14.2,3.6,28.2,18.4,32.4c13.1,3.7,29.5-4.5,32.4-18.4c4.6-21.9,13.8-40.1,30.5-55.3
			c16.2-14.8,41.9-29.3,64.3-29.7C281.5,186,285.4,164.2,270.9,161L270.9,161z"/>
	</g>
	<g>
		<path fill="#FFC9D7" d="M290.7,236.4c9.9,14.7,5.5,43.5-0.5,58.9c-6.4,16.3-25.2,25.9-29.7,42.7c-0.8,2.8-0.1,6.7,2.3,8.7
			c10.8,8.7,28.4,6,39.2-2c14.1-10.4,21.9-27.7,23.5-44.7c2.2-23.3-0.3-67.6-30.4-71.2C291.3,228.4,288.7,233.5,290.7,236.4
			L290.7,236.4z"/>
	</g>
	<g>
		<path fill="#FFC9D7" d="M173.2,279c-7.7,33.6,32.6,65.2,60.4,74.5c24.9,8.2,68.3-5.2,62.1-38.5c-0.6-3.5-4.7-4.3-7.4-3
			c-17.8,8.3-38.5-5-54.1-13.6c-15.3-8.4-31.8-21.8-48.6-26.3C180.5,270.6,174.4,273.7,173.2,279L173.2,279z"/>
	</g>
	<g>
		<path fill="#FFC9D7" d="M254,96.3c-41.8-0.7-89.9,20.2-118.1,50.8c-33.6,36.5-49.3,88.2-44.2,137.3c24.5-3.3,48.9-6.6,73.4-9.9
			c-10.4-29.3-18-53.4-0.3-81.6c14.1-22.4,37.1-38.5,58.2-53.6c34.8-24.9,5-78.3-33.9-58c-33.8,17.6-69.2,33.9-94.9,63.4
			c-27.9,32-33.9,72.2-33.9,113.4c0.2,74.1,42.3,138.5,111.4,166.2c63.7,25.5,139.3,5.1,185.2-45.1c50.1-54.9,58.6-136.4,22-201.1
			c-20.6-36.5-55-65.2-97.2-71.2c-21.9-3.1-44-2.1-65.9,0.6c-25.6,3.1-47.6,7.4-66.2,26.4c-9.5,9.7-6.2,23.5,4,30.9
			c45.6,32.8,112.2-8.7,150.4,35.7c26.9,31.2,30.7,78.8,9,113.6c-21.3,34.1-65.4,53.5-102.9,43.9c-37.7-9.7-68.6-42.1-73.5-81.2
			c-3.2-25.3-3.7-62.1,13.1-83c8.2-10.1,19.5-18.1,30.1-25.5c14.2-9.8,27.9-20.6,43.2-28.7c-11.3-19.3-22.6-38.7-33.9-58
			c-31.8,23.1-64.5,47.6-84.8,82.1C81.8,201.5,79.4,252.7,93,294.4c5.7,17.6,22.2,29.6,41,26.8c16.6-2.5,34.5-18,32.4-36.7
			c-3.9-34.9,2.8-67.6,20.5-98.1c8-13.8,17.8-27.5,29.1-38.8c13.1-13.1,28.1-20.1,44.3-28.3C271.5,113.5,265.7,96.5,254,96.3
			L254,96.3z"/>
	</g>
	<g>
		<path fill="#FFC9D7" d="M202.7,98.5c-3.5,33.3,46.8,29.5,56.5,4.4c12.2-31.5-25.5-54.7-51.7-39.3c-9.8,5.8-14.6,17.8-11.7,28.8
			c6.8,26,28.4,36.7,49.7,49.4c22.5,13.4,42.5,30.9,59,51.2c7.8,9.6,14.3,18.7,14,31.4c-0.4,14-4.2,28.4-6.2,42.3
			c-2.3,16.5-4.3,64.3,24.2,59.7c28.7-4.6,31.6-49.5,35.2-71.4c4.9-30.1,6.3-56.3-11.3-82.9c-15.4-23.4-35.8-43-58.1-59.8
			c-9.9-7.5-20.2-14.3-31.1-20.2c-4.5-2.4-25-9.8-26.4-13.2c-2.2,8.3-4.4,16.5-6.5,24.8c20.9-16.7-11.9-22.7-18.4-22.3
			C209.9,81.9,203.7,88.8,202.7,98.5L202.7,98.5z"/>
	</g>
	<g>
		<path fill="#FFC9D7" d="M180.2,61.8c-37.3,1.1-70.4,24.7-94,52.7c-22,26.1-61.4,85.3-29.4,117.3c34.7,34.7,58-42.9,69.3-63.2
			c17.9-32.3,44.7-57.4,65-87.7C196.5,72.9,189.4,61.5,180.2,61.8L180.2,61.8z"/>
	</g>
	<g>
		<path fill="#FFC9D7" d="M295.4,274.2c-11.7,13.2-18.7,28.7-27.3,43.9c-6.9,12.2-15.5,22.8-20.1,36.1c-1.2,3.6,2,7.4,5.6,7.4
			c36.2-0.3,50.3-51.9,54.7-79.9C309.5,274.9,301.1,267.7,295.4,274.2L295.4,274.2z"/>
	</g>
	<g>
		<path fill="#FFC9D7" d="M258.1,336.5c-21.1,3.8-55,0.9-71,17.2c-8.7,8.8-7.6,25.6,4.1,31.6c23,11.7,53.7-9.4,75.8-16.8
			C287.3,361.6,278.9,332.7,258.1,336.5L258.1,336.5z"/>
	</g>
	<g>
		<path fill="#FFC9D7" d="M169.3,263.1c-1.2,3.7-2.4,7.3-3.4,11c-1.5,5.5-0.7,9.8,0.1,15.4c0.7,4.8,5.4,8,9.5,9.5
			c0.3,0.1,0.5,0.2,0.8,0.3c4.1,1.6,8.6-0.4,11.7-3.1c0.3-0.2,0.5-0.5,0.8-0.7c3.8-3.3,4.4-8.7,3.5-13.3c-0.8-4-1.6-7.4-3.6-11.1
			c-1.4-2.6-2.8-5.3-4-8.1C181.7,256,171.9,255.1,169.3,263.1L169.3,263.1z"/>
	</g>
	<g>
		<path fill="#FFC9D7" d="M149.3,44.9c-31.6,2.7-55,29-74.3,51.9c-23.6,28-36.2,57.7-40.9,94c-4.2,32.2-5.3,64.9-0.4,97
			c3.8,24.8,17.3,65.5,46.6,69.4c3,0.4,6.5-2,7.9-4.5c5.1-9.2,3.6-21.4,3.2-31.7c-0.6-13.8-3.6-27.8-5.4-41.5
			c-3.3-25.3-3.2-50.9-0.7-76.3c2.7-27.8,11-50.8,28-73.2c15.6-20.5,38.1-37.1,50.9-59.6C169.9,60.1,162.6,43.7,149.3,44.9
			L149.3,44.9z"/>
	</g>
	<g>
		<path fill="#FFC9D7" d="M58.5,147.9c-12.4,10.8-17.1,25.5-22.2,40.8c-5.8,17.4-10.1,34.7-12.2,53c-2,17.6-1.5,35.2-0.4,52.8
			c1.2,18.8,0.6,37.9,6.6,56c23.6,72.2,94.2,101.3,164.9,105.7c35.4,2.2,72.8,1.1,106-12.3c29.6-11.9,56.5-30.9,77.3-55.1
			c42.7-49.8,72-126.8,48.9-191.6c-23.1-64.8-93.4-109.4-158.3-123.5c-34.7-7.5-73.1-10.4-105.5,6.9c-16.3,8.7-25.8,27.6-16,44.8
			c10.5,18.4,35,17.8,53.6,19.3c29,2.2,55.4,2.4,83,13.6c24.8,10.1,51,27.1,66.2,49.7c31.2,46.3-6.6,119.3-42.9,151.5
			c-25.3,22.5-57.7,30-90.9,30.4c-36.6,0.5-75.6-4-106.5-25.4c-30.1-20.8-39.9-53.3-42.9-88.4c-1.8-20.7-3.2-41.5-4.4-62.3
			c-1.1-21.2,4.9-42.1,2.5-63C65,147.3,61.3,145.5,58.5,147.9L58.5,147.9z"/>
	</g>
	<g>
		<path fill="#FFC9D7" d="M121.5,76.4c21.5-13.1,47.1-21.1,71.3-27.8c11.2-3.1,22.6-6.7,34-8.8c15.1-2.8,27.3,1.7,41.3,7.1
			c23.9,9.1,49,16.3,72.2,27c22.7,10.4,39.2,25.8,59.2,40c9.7,6.9,24.2-7.1,16.8-16.8c-16.6-21.9-44.8-34.3-68.9-46.4
			c-26-13.1-51.8-28.2-79.2-38.1c-28.9-10.5-55.4-2-83.3,7.5c-28.4,9.6-52.5,21.7-73.1,43.9C105.9,70.4,113.6,81.3,121.5,76.4
			L121.5,76.4z"/>
	</g>
	<g>
		<path fill="#FFC9D7" d="M199.3,78.8c-0.7-1.8-1.4-3.6-2.1-5.4c-12.2,7.1-24.5,14.3-36.7,21.4c14.7,17.8,44.5,11.3,63.7,6
			c39.2-10.7,31.3-70.8-9.6-70.8c-11.5,0-23,0.5-34.5,1.1c6.2,23.1,12.5,46.1,18.7,69.2c16.3-7.4,43.8-4.6,60.7-1.7
			c17.6,3.1,32.3,11.9,45.1,23.9c15.5,14.6,28.4,34,47.1,44.9c26.4,15.4,57.4-0.7,55.6-31.9c-1.4-24.4-21.3-46.5-38.1-62.7
			c-15.3-14.9-33.2-28.2-52.7-37c-45.8-20.6-109.7-21.6-155.2,0.4c-32.7,15.8-17.4,71.9,18.7,69.2c11.5-0.9,23-1.8,34.5-3.3
			c-3.2-23.6-6.4-47.2-9.6-70.8c-21.5,8.9-50.4,20.8-51,47.9c-0.4,17.7,25.3,30.8,37.5,15.5c1.5-1.4,3-2.7,4.5-4.1
			C203.8,92,206.9,81.4,199.3,78.8L199.3,78.8z"/>
	</g>
	<g>
		<path fill="#FFC9D7" d="M307.7,96.9c7.9,7.3,14.1,19.4,20.3,28.2c5.9,8.4,11.2,17.1,16.7,25.6c11.6,17.8,23,35.1,30.4,55.1
			c8.1,21.8,12.4,43.4,10.9,66.7c-1.6,24.4-15.6,46.2-16.1,70.4c-0.6,26.4,33.9,51,57.4,32.9c29.8-22.9,37.6-61.8,40.5-97.7
			c2.5-31.4-2.5-64.7-14-94c-11.2-28.5-29.5-56.7-52.8-76.8c-11.4-9.8-24.6-17.7-38.3-23.9c-13.4-6.1-26.7-7.3-40.3-11.8
			C308.1,66.9,296.9,86.8,307.7,96.9L307.7,96.9z"/>
	</g>
	<g>
		<path fill="#FFC9D7" d="M405.4,282.9c-10.4,12.2-10.6,27.5-15.8,42.2c-5.5,15.7-15.2,30.4-27.1,42c-11.2,11-27,18.8-34.8,32.7
			c-7.8,14-3.5,30.3,12.5,35.2c32.3,10,64.6-30.5,77.5-55c13.1-24.7,28.9-74.5,5.3-97.2C418.5,278.5,409.9,277.7,405.4,282.9
			L405.4,282.9z"/>
	</g>
	<g>
		<path fill="#FFC9D7" d="M30.2,322.7c-11,14.9-4.2,45.3,2.9,60.7c9.2,19.8,21.9,41,38,56c38.6,36,87.9,53.3,139,62.1
			c28.4,4.9,56.7,9,85.3,2.9c23.8-5.1,46-16.8,65.2-31.5c20.1-15.4,38-34.8,51.1-56.6c6.8-11.4,12.9-25.1,16.4-37.9
			c3.6-13.2,1.9-23.3-1.4-36.3c-1.8-7-10.8-10.9-16.9-6.9c-8.2,5.3-15.5,9-21.8,16.9c-6.6,8.4-12,17.6-18.1,26.4
			c-11.6,16.9-23.3,33.4-39.3,46.6c-33.1,27.3-70.8,27.9-111.4,21.2c-39.7-6.6-82.1-17.3-115.5-40.8c-16.2-11.4-29.7-23.1-40.2-39.9
			c-4.5-7.2-9.4-14.1-13.4-21.6c-4-7.7-5.8-16.1-12.1-22.3C35.6,319.3,32.1,320.2,30.2,322.7L30.2,322.7z"/>
	</g>
	<g>
		<path fill="#FFC9D7" d="M323.3,481c21.7,8.6,48.3-8.5,64.4-21.6c20.7-16.8,40-35.6,53.2-58.9c28.2-49.8,50.4-105.6,46.9-163.8
			c-3.6-60.3-33.6-106.3-74.4-149C394.7,68,372,52.6,345,47.4c-13.6-2.6-27.9-3.1-41.7-0.9c-15.8,2.5-26.6,10.8-39.8,19.1
			c-5.5,3.4-4.5,11.8,1.8,13.7c10.9,3.3,20.9,8.1,32.2,9.8c10.7,1.6,21.4,1.4,32,3.5c22.7,4.4,37.8,17.3,52.9,34.1
			c31.5,35.1,54.7,70.2,55.1,118.8c0.4,45.1-13.3,93.5-33.2,133.7c-9.5,19.2-17.9,40.8-33.3,55.8c-14.8,14.4-36.7,23.3-49.6,39
			C319.3,476.5,320.2,479.8,323.3,481L323.3,481z"/>
	</g>
	<g>
		<path fill="#FFC9D7" d="M274.7,214.9c0.7,6.8,2.9,13,4.9,19.6c2,6.7,3.4,13.4,6.7,19.7c7.3,14.1,26.9,3.8,24.3-10.2
			c-1.3-6.6-4.9-13.1-7.7-19.2c-2.8-6.2-5.3-12.1-9.5-17.5C287.7,199.8,273.8,205.8,274.7,214.9L274.7,214.9z"/>
	</g>
	<g opacity="0.16">
		<path fill="#87343B" d="M268.3,311.6c11.8-1.3,19.1-9.1,25.2-18.8c-2.3,1.3-4.7,2.7-7,4c1,0.1,2,0.2,3,0.4
			c8.4,1,15.4-6.6,17.9-13.6c7.2-20.2,7.8-44.5-5.8-62.2c-13.9-17.9-38.4-26.7-60.7-25.9c-30.3,1.2-75.3,46.3-46.5,75.6
			c1.7,1.7,4.1,1.1,5.4-0.7c5.3-7.5,5.8-16.4,8.5-25c5.2-17,18.5-13.6,32.7-11.8c10.4,1.3,25.3,3.3,30.1,14.4
			c3.6,8.3,0.1,21.8,0,30.6c0,6.1,3.4,13.3,9.2,16c0.7,0.4,1.5,0.7,2.2,1.1c-1.2-3.1-2.5-6.1-3.7-9.2c-2.5,6.9-7.2,11.4-12.9,15.7
			C262.3,304.8,262.7,312.2,268.3,311.6L268.3,311.6z"/>
	</g>
	<g opacity="0.16">
		<path fill="#87343B" d="M287.7,298c22.2-7.5,27.3-31.9,30.9-53c4.8-28.6-14.8-42.8-38.7-53.6c-25.5-11.6-52-15-76.8,0.9
			c-25.1,16-34.2,45.5-15.8,69.7c2.9,3.9,7.4,4.7,11.2,1.4c10.3-8.6,15.8-18.9,24.4-28.9c8.8-10.3,24.4-14.3,37.5-12.9
			c17.7,1.9,30.7,11.6,32.2,29.4c1.2,14.4-1.2,28.9-9.1,41.3C281.5,295.1,284.5,299.1,287.7,298L287.7,298z"/>
	</g>
	<g opacity="0.16">
		<path fill="#87343B" d="M205.7,239.1c2.1-3.5,6.2-7.8,10.1-10c5.4-3,11.4-2.6,16.7-5.7c7.6-4.5,9.1-18,0-22.2
			c-19.3-8.8-52,13-47.4,35.2C187.1,246.3,200.9,246.9,205.7,239.1L205.7,239.1z"/>
	</g>
	<g opacity="0.16">
		<path fill="#87343B" d="M234.3,301.7c-13.1-12.7-31.8-24.6-37.4-42.9c-4.8-15.6,7-39.1,21-47.1c16-9.2,35.6-3,48.8,8.6
			c16.2,14.3,11.9,33.1,15.9,52.4c0.8,3.7,5.4,6.3,9,5.1c38.6-12.5,38.3-63,13.9-89.2c-27.3-29.3-72.6-41.1-109.3-23.9
			c-17,8-31,21.9-39,39c-9.2,19.8-5.8,37.8-0.1,57.8c8.8,30.7,40.9,63,74.6,50.1C235.6,309.9,237.7,305,234.3,301.7L234.3,301.7z"/>
	</g>
	<g opacity="0.16">
		<path fill="#87343B" d="M41.1,332.3c-2.7,26.2-1.2,49.5,11.9,73.1c11.6,20.9,28.5,38.9,48.8,51.6c25.1,15.7,50.7,25.1,78.8,33.5
			c16.2,4.8,33.2,7.9,50.1,9.7c17,1.8,29.2,0.5,45.5-3.9c51.9-14,99-31.8,135-73.5c16-18.6,27.7-39.3,36.1-62.3
			c4.6-12.5,8.8-25.2,11.6-38.2c1.2-5.7,3-12.2,3-18c0-5.6-3.1-9.7-3.5-15c-0.6-7.9-12.9-10.8-14.7-2c-1.8,8.6-6.3,16.8-8.1,26
			c-2.2,11.1-5.1,22.4-9.7,32.8c-8.2,18.5-20.5,35.7-33.3,51.2c-26.5,32.3-68.5,65.5-112.2,65.6c-12.3,0-24.9-4.7-37.3-6.2
			c-12.7-1.5-25.4-3.2-38-4.9c-26.1-3.5-54-3-79.2-11.7c-40.7-14.1-72.7-66.7-77.5-107.9C48,327.6,41.6,327.5,41.1,332.3L41.1,332.3
			z"/>
	</g>
	<g opacity="0.16">
		<path fill="#87343B" d="M102.5,84.4c7.8-1.5,12.4-6.7,19-10.9c7.5-4.8,15.7-8.8,23.8-12.6c17.7-8.3,37.7-14.6,56.8-18.7
			c43-9.2,76.3,17.3,111.7,36.5c17.3,9.4,37,11.1,54.5,19.6c16.4,8,30.7,19.4,44.3,31.5c14.4,12.7,24.9,30.8,32.9,48.1
			c7.8,16.8,11.8,36.1,22.3,51.5c2.2,3.2,8,3.2,8.9-1.2c8-38.7-23.8-79-45-108.1c-13.6-18.7-28.9-35-47.5-49
			c-18.2-13.6-38.7-23.8-57.9-35.8c-18.9-11.8-37.4-25.1-59.9-28.6c-11.1-1.7-24.1-3-35.1-0.1c-11.9,3.2-23.3,9.1-35.5,12.4
			c-21,5.5-42.4,12.5-61.8,22.3c-14.1,7.2-36.2,21.3-37,38.8C96.8,83.2,99.9,84.9,102.5,84.4L102.5,84.4z"/>
	</g>
	<g opacity="0.1">
		<path fill="#87343B" d="M43.4,232c-16.1,13.8-17.5,46.3-16.3,66.2c0.8,13.6,3.8,26.9,5.4,40.4c1.6,13.5,2.3,27.2,5.8,40.3
			c14.1,52.5,58.5,74,106.7,88.9c54.7,16.8,111.1,38,167.4,15c26-10.6,49.4-26,68.4-46.6c16.5-17.9,35.2-34.6,48.3-55.3
			c15.2-23.8,25.4-52.2,35.5-78.4c8.4-21.8,27.6-61.6,6.4-80.9c-3.9-3.6-9.1-4.2-13.8-1.8c-11.8,6.2-14.9,17.5-18.3,29.4
			c-4.1,14.4-8.2,28.4-13.7,42.4c-9.1,23.4-18.1,50.8-34.5,70.3c-16.9,20.1-45.1,29.5-67.7,41.9c-21.4,11.8-43.4,21.5-68.4,20.4
			c-28.5-1.2-57.9-11.8-85.6-18.4c-20.4-4.9-44.4-8.5-61.4-21.8c-8.9-6.9-13.7-16.7-18.9-26.4c-7-13.1-16.5-25.5-21.7-39.5
			c-5-13.6-8.6-28.3-10.8-42.6c-2.1-13.5,1.4-27.8-2.3-40.7C52.6,230,47,229,43.4,232L43.4,232z"/>
	</g>
	<g opacity="0.1">
		<path fill="#87343B" d="M304.9,72.7c19.7,20.4,37.2,39.5,61,55.6c17.7,12,28.9,25.7,37.2,45.6c8.9,21.4,16.1,44.2,19.9,67.1
			c3.5,20.7,2.1,46.7,12,65.4c2.4,4.5,8.2,6.6,13,5.3c26.7-7,36.3-43.1,35.8-67.1c-0.6-31-12.5-62-24.4-90.2
			c-11.4-27.1-26.3-50.1-51.2-66.6c-28.5-18.8-58.8-26.9-90.9-36.5C304.8,47.5,296.2,63.7,304.9,72.7L304.9,72.7z"/>
	</g>
	<g opacity="0.1">
		<path fill="#87343B" d="M115.7,449.2c52,23.1,111.1,41.1,168.6,38.2c51.7-2.7,99.5-30.6,129.4-72.8c32.1-45,61.2-102.2,68.7-157.6
			c6.2-46.2-10.2-103-56.2-121.6c-4.8-1.9-9.2,4.5-6.6,8.6c11.1,17.6,24.7,36,31.6,55.6c8.2,23.4,6.9,48.4,2.5,72.5
			c-8.9,48.3-29.1,95.9-63.5,131.1c-31,31.7-70.4,57-114.9,64.4c-54.8,9.1-105.3-9-156.6-25.5C114.6,440.7,111.6,447.4,115.7,449.2
			L115.7,449.2z"/>
	</g>
	<g opacity="0.17">
		<path fill="#87343B" d="M101,438.8c8.1,19.4,35.7,31.8,54.1,38.9c24.3,9.4,49.5,14.4,75.5,14c53-0.7,114.7-17.8,156.7-51.1
			c39.9-31.7,62.8-77,79.8-124c9.7-26.9,18.6-56.4,17.8-85.2c-0.8-30-19.7-51.5-36.4-75c-3-4.2-8.7-0.6-6.7,3.9
			c10.5,24.7,15.5,50.4,14.1,77.4c-1.2,24.9-11.1,47.5-20.7,70.1c-16.3,38.1-31,83.7-63,111.5c-35.6,30.8-92,47.9-138.4,50.8
			c-22.8,1.4-46.9,0-68.8-6.9c-11.8-3.7-23.2-8.9-34.1-15c-8.4-4.7-15.8-11.6-25-14.3C103.3,433.2,99.9,435.9,101,438.8L101,438.8z"
			/>
	</g>
	<g opacity="0.17">
		<path fill="#87343B" d="M201.8,253c10.6-6.3,22.7-20.1,22.3-33.1c-1.8,3.2-3.7,6.4-5.5,9.6c10-7.2,29-1.1,38.7,4.6
			c9.4,5.5,12.3,15.2,17.9,24c2.2,3.4,6.6,2.4,8-1c13.2-31.8-15.9-47.9-43.4-50.9c-7-0.8-13.6-0.1-20.5,1.2c-13.8,2.7,2.3,1.1-4.4,1
			c-3.3,0-6.3-1.2-9.9-0.8c-14.8,1.9-27.6,17.5-25.8,32.4C180.4,250.9,191,259.4,201.8,253L201.8,253z"/>
	</g>
	<g opacity="0.1">
		<path fill="#87343B" d="M111.1,64.6C81.1,94.7,53,127.8,42,169.8c-5.4,20.8-7.9,42.7-9.4,64c-1.7,23.6-4.4,49.8,2.9,72.7
			c1,3.1,6.2,3.7,6.9,0c3.7-19.6,1.9-39.9,3.1-59.7c1.5-23.5,4.4-47.3,10.4-70.1c10.8-40.8,36.9-74,60.9-107.8
			C119.1,65.6,113.9,61.8,111.1,64.6L111.1,64.6z"/>
	</g>
	<g opacity="0.1">
		<path fill="#87343B" d="M246.2,306.2c5.4-0.2,10.1,3.5,15.6,3.9c6.4,0.5,13.1-0.9,19.4-1.8c15-2,26.6-6.4,38.6-15.7
			c12.5-9.8,16.9-21.5,18.2-37.2c1.5-16.7-3.5-27.8-14.2-40c-2.5-2.9-6.8-2.2-9.4,0c-8.3,6.9-13.8,12.1-17.1,22.7
			c-3.3,10.3,0.1,22.9-3.5,32.6c-3.4,8.9-19.9,14.8-27.9,17.9c-6.8,2.6-14.1,9.2-20.6,10.8C241.6,300.4,242.4,306.3,246.2,306.2
			L246.2,306.2z"/>
	</g>
	<g opacity="0.1">
		<path fill="#87343B" d="M233.5,182.3c11.2-4.1,14.4-17.1,7.8-27c-9.1-13.6-28.7-12.4-42.8-9.5c-32,6.8-57.7,34.2-64.1,65.9
			c-3.6,18.2,20.3,37.5,34.5,20.1c10.2-12.4,16.9-26.5,30-36.6c10.1-7.8,26.5-16.2,38.3-8.2c4-14.9,8.1-29.8,12.1-44.7
			c-25.4-1-53.1,1.6-75.9,13.8c-22,11.8-35,34.4-41.1,58c-6.4,25.3-1.6,50.2,18.5,67.6c14.3,12.4,39,25.9,58.1,17.9
			c2.8-1.2,5.6-3.6,5.4-7c-0.8-11.5-8.2-21.7-16.7-28.9c-12.4-10.5-24.8-15.7-20.4-34c3.3-13.7,8.4-27.6,22.1-33.5
			c15.4-6.6,33.4-6.6,49.8-5.8c25.5,1.2,30.3-32.2,12.1-44.7c-45.3-31.3-119.5,16.2-127.1,66.1c13.5,1.8,27,3.7,40.5,5.5
			c1.8-14.9,13.2-28.3,26.6-34.3c6-2.7,12.5-4.1,19-3.2C224.3,180.3,229.6,183.7,233.5,182.3L233.5,182.3z"/>
	</g>
	<g opacity="0.1">
		<path fill="#87343B" d="M237.3,501.6c28.5,20.2,90.8,2.8,108.3-26.2c1.5-2.5-1-5.9-3.9-5c-17.3,5.7-31.9,16-50.1,19.6
			c-17.8,3.6-35.9,0.5-53.4,4.2C234.5,494.9,234.7,499.7,237.3,501.6L237.3,501.6z"/>
	</g>
	<g opacity="0.1">
		<path fill="#87343B" d="M203.5,459.4c34.5,7.7,68.2,15.4,103.7,10.1c25.1-3.8,73.2-19.8,69-53.1c-3.9-30.2-49.4-1.1-61.8,5
			c-33.2,16.5-71.9,22.8-108.7,21.7C196.4,442.8,194.3,457.3,203.5,459.4L203.5,459.4z"/>
	</g>
	<g opacity="0.19">
		<path fill="#FF8F95" d="M401.8,248.3c22.2-31.7,12.3-74.9-7.9-104.9c-20.5-30.6-52.9-53.9-86.1-69.1
			c-34.2-15.7-73.3-28.7-111.4-22.9c-34.5,5.3-86.8,30.5-85.6,71.7c0.2,7.2,4.9,13.7,11.9,15.7c30.2,8.4,53.1-13.7,81.4-18.6
			c23.3-4.1,50.2,5.9,71,15.6c24.9,11.6,45.5,27.8,67.3,44c9.6,7.2,19.9,14.2,25,25.5c6.3,13.8,6.1,29.3,12.9,43.1
			C384.9,257.2,396.9,255.3,401.8,248.3L401.8,248.3z"/>
	</g>
	<g opacity="0.19">
		<path fill="#FF8F95" d="M63.4,281.5c-3.8,44,10.7,86.5,39.2,120.1c31,36.6,76.1,53.5,123.2,55.7c49.6,2.4,103.2-15.9,147.7-36.4
			c21.1-9.8,38.8-24.7,50.9-44.7c11.7-19.2,24.8-45.4,22.8-68.5c-1-11.4-12.6-19.9-23.5-13.5c-30.3,17.9-40.1,57.2-71.7,73.5
			c-33.9,17.5-75.8,30.5-113.6,35.3c-78.2,10-148.4-41.9-157.2-121.5C80,270.1,64.4,269.9,63.4,281.5L63.4,281.5z"/>
	</g>
	<g opacity="0.19">
		<path fill="#F3E5E7" d="M212.6,135.9c25-1.1,53.7,6.5,73.2,22.8c8.1,6.7,12.2,15.7,19.1,23.1c5.4,5.7,13.3,9.4,19.7,13.7
			c8,5.4,19.4-1.7,19.2-11c-0.5-21.2-8.3-38-25-51.4c-20.8-16.6-49.7,10.1-30,30c16.3,16.4,31.7,26.1,35.5,50.4
			c2.3,14.5,12.2,41.6,31.5,26c17-13.7,10.4-45.8,2.8-62.7c-8.8-19.7-25.8-35.8-44.1-47c0,12.2,0,24.4,0,36.6
			c-5.9,3.1-2.6,2.7,0.3,9.6c1.5,3.8,2.7,8,4,11.9c5.2-5.2,10.5-10.5,15.7-15.7c-13.7-4.1-18.8-9.3-27.7-19.5
			c-7-8-15.5-14-25.1-18.6c-22.9-10.8-44.5-9-69-6.3C207.6,128.3,207.3,136.1,212.6,135.9L212.6,135.9z"/>
	</g>
	<g opacity="0.75">
		<path fill="#F3E5E7" d="M213.8,136.3c28.8,3.6,64.5-0.8,88.1,19.5c19.5,16.7,21,45.2,42.5,61.1c4,3,8.3-1.2,8.8-5
			c4.1-32.2-16.6-66.3-43.7-82.4c-30.3-17.9-67.5-18.2-97.8-1C207.7,130.7,209.9,135.9,213.8,136.3L213.8,136.3z"/>
	</g>
	<g opacity="0.46">
		<path fill="#F3E5E7" d="M86.1,239.8c-7.6,62.7,19.5,135.9,89.8,146c30.2,4.4,63.2,3.4,92.5-5.1c25.9-7.5,62.4-15.8,76.6-41.6
			c2.5-4.5-0.5-11.5-6.3-11c-22.2,1.8-42.6,14.9-64.6,19.1c-23,4.4-51.7,3.3-73.3-5.7c-21.5-8.9-38.2-22.3-55.9-37
			c-21.5-17.9-48.5-33.1-51-64.7C93.5,234.7,86.7,234.9,86.1,239.8L86.1,239.8z"/>
	</g>
	<g opacity="0.46">
		<path fill="#F3E5E7" d="M58,361.2c9.3,35.1,38.1,75.8,73,89.4c2.9,1.1,4.7-2.9,2.8-4.9c-13.3-14.5-28.3-25.3-40-41.6
			c-10.6-14.6-19.3-30.4-27.5-46.4C63.9,353,56.7,356.3,58,361.2L58,361.2z"/>
	</g>
	<g opacity="0.46">
		<path fill="#F3E5E7" d="M329,148.4c-1.9,12.6,1.8,22.5,6.4,34.1c5.1,13,7.1,26.6,12.7,39.4c4.1,9.3,17,13.9,26.1,12.5
			c11.1-1.7,17.7-8.7,21.8-18.8c7.8-19.2-2.3-41-13.5-56.6c-9.8-13.7-22.5-27.5-41-23.2C336.1,137.1,329.9,142.6,329,148.4
			L329,148.4z"/>
	</g>
	<g opacity="0.46">
		<path fill="#F3E5E7" d="M359.5,236.4c2.9,11.4-2.3,27.3-5,38.4c-2.2,9.1-6.2,19.1-1.1,27.8c1,1.8,3.5,2.9,5.5,2.2
			c11.2-3.7,14.3-16.6,15.3-27.4c0.6-6.6,0.6-13.3-0.1-19.9c-0.8-7.4-4.5-15.2-5-22.4C368.6,228,357.8,229.6,359.5,236.4
			L359.5,236.4z"/>
	</g>
	<g opacity="0.46">
		<path fill="#F3E5E7" d="M98.6,307.5c4.8-14.4,5.1-28.7,13.2-42.3c6.9-11.6,16.6-20.7,26.8-29.3c19-16-5.6-46.9-26.3-34.1
			C75.5,224.5,52.6,266.6,56,309.9c2.6,33.1,53.4,34,52.3,0c-0.7-22.5-4-53.1,11.6-71.8c-14.6-11.3-29.2-22.6-43.9-33.8
			c-17.6,35-23.2,74.4-13.7,112.7c6.5,26.1,33.6,72.8,66.8,55.9c-3.9,0.5-7.8,1-11.6,1.5c4.6,0.7,8.5,1.2,13.1,1.1
			c12.9-0.1,15.5-15.9,6.1-22.7c-1.5-1.2-3.1-2.5-4.6-3.7c1.5,3.6,3,7.1,4.4,10.7c-0.1-10.9-6-17.4-10.6-26.7
			c-4.7-9.5-8.5-20.3-10.9-30.7c-5.5-23.6-1.8-48.4,9.1-69.9c13.4-26.5-22.6-59.8-43.9-33.8C53.4,231.5,51.3,269.1,56,309.9
			c17.1-2.3,34.3-4.6,51.4-7c-5.2-24.9,5.7-49.8,26.7-63.6c-8.8-11.4-17.5-22.7-26.3-34.1c-27.2,24.2-59.6,68.7-39.5,106.2
			C75.4,324.7,94.3,320.4,98.6,307.5L98.6,307.5z"/>
	</g>
	<g opacity="0.46">
		<path fill="#F3E5E7" d="M128.4,177.2c-28.7,20.9-46.9,51.6-49.3,87.4c-2.1,31,10.6,80.9,44.2,91.5c4.2,1.3,7.7-2.9,6.8-6.8
			c-2.9-12.8-11-25-16.2-37.1c-6.2-14.4-9.4-29.1-9.7-44.9c-0.6-30.2,10.3-60.1,29.4-83.5C136.3,180.4,132.6,174.1,128.4,177.2
			L128.4,177.2z"/>
	</g>
	<g opacity="0.46">
		<path fill="#F3E5E7" d="M98.9,89.6c-8.7,16.3-17.4,32.6-24.5,49.6c-7.3,17.4-11,36.9-20.5,53.2c12,3.3,24.1,6.5,36.1,9.8
			c0.5-36.2,11.2-69.6,35.7-96.7c11-12.1,22.3-22.9,36.9-30.5c14.4-7.5,30.9-10.4,43.4-21.1c3.9-3.4,3.2-11.6-1.8-13.8
			c-33.6-14.4-84.4,16.6-107.4,40.2c-31,31.8-48.5,77.7-45.5,121.9c1.9,28.6,45.8,21.6,38-5.1c-4.9-16.7-0.7-34.9,2.6-51.7
			c3.4-17.5,8.1-34.4,15.3-50.8C109.8,88.9,102,83.9,98.9,89.6L98.9,89.6z"/>
	</g>
	<g opacity="0.87">
		<path fill="#F3E5E7" d="M92.8,266.4c-5.6,36.5,5.6,70.1,31.9,96.3c22.1,22,68,41.3,96.2,19.9c3.2-2.4,3.2-7.7-1.2-8.9
			c-13.4-3.8-27.2-3-40.7-5.8c-13.8-2.9-27.2-8.6-38.9-16.5c-26.5-18.1-39.3-52.4-37.8-83.7C102.6,262.3,93.6,260.9,92.8,266.4
			L92.8,266.4z"/>
	</g>
	<g opacity="0.87">
		<path fill="#F3E5E7" d="M355.8,198.2c0.7-5.2,0.1-9.4-1.7-14.4c-3.3-9.1-19.6-11.9-21.4,0c-1.9,12.6,3.8,28.4,19.3,26
			c12.2-1.9,20.2-17.2,23-28.2c8.5-33-24.4-56.1-51.8-64.8c-7.2-2.3-16.9,0.1-22,5.8c-4.4,4.9-6.5,9.4-6.6,16
			c-0.2,7.7,4.4,15.9,11.2,19.6c10,5.3,20.6,9.7,30.7,14.9c3.5,1.8,8.8,2.6,11.9,4.8c-1.4-3.3-2.3-2.8-2.6,1.5
			c-2.5,1.9-2.8,3.5-0.9,4.5c4.3,1.1,8.7,2.3,13,3.4c-1.7-2-3.3-4.1-4.9-6.2c-6.4,3.7-12.8,7.5-19.2,11.2c2.2,2.3,3.6,5,4.2,8.2
			C341,211.2,354.6,207.9,355.8,198.2L355.8,198.2z"/>
	</g>
	<g opacity="0.87">
		<path fill="#F3E5E7" d="M363.8,264.7c8.6,0.3,12.9-6.8,19.5-11.2c-4.1-3.2-8.3-6.4-12.4-9.5c-3,14.8-8.6,28.2-13.6,42.4
			c-4,11.5-9.4,23.3-5.7,35.5c0.7,2.5,3.3,3.3,5.5,2.2c24.3-11.6,25.5-53,30.1-75.7c1.4-6.8-5.8-13.7-12.4-9.5
			c-8,5-18.7,12-15.1,22.7C360.4,263.4,361.9,264.6,363.8,264.7L363.8,264.7z"/>
	</g>
	<g opacity="0.87">
		<path fill="#F3E5E7" d="M91.2,291.8c0-17.6,3.9-43.3-8.5-57.7c-2.4-2.7-6.5-2.1-9,0c-16,13.5-10.7,43.2-7.5,61
			C68.9,309.5,91.2,305.8,91.2,291.8L91.2,291.8z"/>
	</g>
	<g opacity="0.87">
		<path fill="#F3E5E7" d="M72.1,191.8c12-12.9,17.3-30.4,25.3-45.8c7.6-14.7,17.2-26.8,27.1-39.9c2.4-3.1-0.8-7.7-4.3-7.6
			c-17.7,0.6-30.4,14.9-38.2,29.6c-9.4,17.6-18.7,40.7-16.9,60.8C65.5,192.2,69.5,194.6,72.1,191.8L72.1,191.8z"/>
	</g>
	<g opacity="0.87">
		<path fill="#F3E5E7" d="M329.1,129.7c-7.9-6-14-10.1-24.4-10.6c-9.3-0.5-17.5,1.4-25.4,6c-2.6,1.5-1.4,5.4,1.5,5.4
			c8.2,0.3,16.5,0.5,24.7,1.4c7.1,0.7,14.9,0.7,21.9,2C330,134.4,331.1,131.3,329.1,129.7L329.1,129.7z"/>
	</g>
	<g opacity="0.59">
		<path fill="#F3E5E7" d="M249.4,139.5c21.1-1.9,46-2,66.1,5.6c15.7,6,29.2,18.5,40.1,30.8c3.5,4,9.3,1.4,10.9-2.9
			c9-24.3-9-47.9-30.5-57.8c-30.6-14.1-59.4-5.8-89.1,5.4C237.5,124.2,237.8,140.6,249.4,139.5L249.4,139.5z"/>
	</g>
	<g opacity="0.59">
		<path fill="#7A2C32" d="M202.4,267.5c-0.4-14,0.6-27,15.7-33.1c8-3.2,17.8-3.3,26.3-2.9c22.1,1.1,31.1,13.1,39.7,31.6
			c0.4,1,2,0.5,2-0.5c-1.8-30-20-44.3-49.6-42.3c-27.4,1.9-45,19.7-36.6,47.6C200.2,269.3,202.5,269.1,202.4,267.5L202.4,267.5z"/>
	</g>
	<g opacity="0.34">
		<path fill="#7A2C32" d="M276.5,245.7c0.7,7.8,1.4,15-0.6,22.7c-2,7.7-6.6,13.5-10,20.5c-0.4,0.8,0.4,1.9,1.3,1.3
			c13.2-8.2,17.4-31.2,12-44.9C278.8,244,276.4,244,276.5,245.7L276.5,245.7z"/>
	</g>
	<g opacity="0.34">
		<path fill="#7A2C32" d="M319.3,462.3c35.7-4.6,70.7-16.3,96.9-42c26.7-26.2,41.7-61.8,49.6-97.8c8.6-39.1,15.3-83.6,11.7-123.5
			c-2.6-28.9-14.7-62-43.4-73.9c-1.8-0.7-3.2,2-1.9,3.2c26.5,24.2,36,53.9,35.3,89.5c-0.8,35.9-4.6,73.2-13.1,108
			c-7.8,31.9-21.3,64.1-45.8,86.9c-25.2,23.5-59.4,33.7-89.6,48.8C318.7,461.7,318.9,462.4,319.3,462.3L319.3,462.3z"/>
	</g>
	<g opacity="0.11">
		<path fill="#7A2C32" d="M256.4,501.3c14,3.4,28.3,9.2,42.8,4.2c17.2-6,34.9-16,50.3-25.5c1-0.6,0.4-2.4-0.8-2
			c-13.1,4.3-25.8,10-38.4,15.6c-18,8.1-34.7,6.7-53.7,6.1C255.7,499.6,255.5,501.1,256.4,501.3L256.4,501.3z"/>
	</g>
	<g opacity="0.34">
		<path fill="#7A2C32" d="M307,477.7c-34.2,7.5-71.5,14.5-106.5,8.9c-29.8-4.8-56.9-18.8-85.4-28.3c-1.6-0.5-2.5,1.8-1.1,2.7
			c27.4,17.3,58.4,30.5,90.8,34.6c36,4.5,68.6-6.4,102.5-16.8C308,478.6,307.7,477.5,307,477.7L307,477.7z"/>
	</g>
	<g opacity="0.34">
		<path fill="#7A2C32" d="M369.8,54.3c-27.3-2.6-47.5-19.9-72.4-30c-20.3-8.2-42.2-12.5-64.1-12.2c-20.2,0.3-38.5,5.9-56.5,14.8
			c-24.9,12.2-50.3,24.1-74.2,38.1c-0.9,0.5-0.3,2.1,0.7,1.7c45.8-18.3,89.9-51.4,141.4-46.8c26.2,2.3,52.3,11.7,76.1,22.4
			c14.8,6.6,32.5,20.8,49.3,14.6C371.6,56.4,371.3,54.5,369.8,54.3L369.8,54.3z"/>
	</g>
	<g opacity="0.15">
		<path fill="#7A2C32" d="M94.6,76.2c-12.5,28.4-34.3,51.5-45.8,80.3c-11.9,29.9-12.3,64-14.2,95.7C31.5,303.6,22,374.4,61.4,415.3
			c1.4,1.4,3.7-0.4,2.7-2.1C48.8,386,39.3,360,36.4,328.7c-2.6-27.8-1.4-55.4,0.4-83.2c2.2-33.6,3.7-67.6,19.8-97.9
			c12.7-24,29.7-45.2,40-70.5C97,75.9,95.1,75.1,94.6,76.2L94.6,76.2z"/>
	</g>
	<g opacity="0.22">
		<path fill="#7A2C32" d="M271.6,223.7c2-25-34.9-29.3-52.6-24.9c-25.4,6.4-42,27.3-39.7,53.5c0.2,2.7,3.5,3,4.5,0.6
			c5.5-13.1,15.7-27.1,28.3-34.4c12.9-7.5,46.1-12.3,52.3,6.1C265.8,228.6,271.2,227.8,271.6,223.7L271.6,223.7z"/>
	</g>
	<g opacity="0.16">
		<path fill="#7A2C32" d="M374.2,64.2c9.3,12,19.8,24,32.5,32.6c0.6,0.4,1.3-0.5,0.8-1c-11-10.7-22.3-20.7-32-32.7
			C374.7,62.1,373.6,63.3,374.2,64.2L374.2,64.2z"/>
	</g>
	<g>
		<path fill="#782D19" d="M46.5,402.7c2.3-11,9-17.7,14.5-27c4.6-7.8,8.7-16.2,12-24.5c4-9.9,6.7-20.7,15.7-27.6
			c6.4-4.9,13.6-6.4,19.6-12.2c14.2-13.7,24.5-29.1,31.9-47.3c9.1-22.5,18-38.3,35.4-55.3c13.9-13.6,25-25.3,33.3-43.1
			c9-19.2,19.9-34.8,34.3-50.3c25.8-27.9,37.2-62.6,34.3-100.8c-0.5-6.7-10.2-8.7-12.1-1.6c-2.6,9.7-3.2,19.9-6.5,29.4
			c-3.1,8.8-7.9,17.8-11.8,26.4c-8.5,19-20.8,32.8-33.4,49c-11.7,15.1-21.7,31.8-32.2,47.8c-5.5,8.4-9.6,17.5-16.4,25
			c-6.7,7.4-14.5,13.8-20.9,21.5c-12.3,14.9-19,33.6-30.7,49.1c-11.7,15.6-23.5,32.8-37.1,46.5c-7,7.1-14.8,10.3-19.8,19.5
			c-4.2,7.7-7.1,16.2-11.1,24c-8.6,16.7-12.6,30.9-11,50C35,407.5,45,410,46.5,402.7L46.5,402.7z"/>
	</g>
	<g>
		<path fill="#782D19" d="M263,8.2c-15.7,26.7-32.3,52.8-48.6,79.3c-17,27.6-30.8,59.8-51.8,84.4c-19.9,23.3-39.6,42.9-54.7,69.8
			c-8.9,15.8-17.5,31.6-25.4,47.8c-7,14.4-17.2,27-18,43.5c-0.2,3.9,4.7,6.7,7.9,4.6c12.8-8.5,18.1-22,26.1-34.7
			c10.2-16.3,20.1-32.5,29.7-49.2c16.3-28.5,38.4-52,59.9-76.8c20.6-23.7,41.1-43.7,55.7-72.2c15-29.2,24-60.1,28.9-92.4
			C273.7,6.7,266.3,2.6,263,8.2L263,8.2z"/>
	</g>
	<g>
		<path fill="#782D19" d="M193.9,136.9c8.1-6.5,11.8-15.6,16.9-24.6c5.9-10.4,12.5-20.4,18.8-30.5C241,63.5,257,45.3,260.7,23.6
			c0.4-2.2-1.8-4.4-3.9-3c-19.1,11.9-29.1,34.7-39.4,54c-9.3,17.3-25.9,41-26.3,61.1C190.9,137.3,192.8,137.7,193.9,136.9
			L193.9,136.9z"/>
	</g>
	<g>
		<path fill="#782D19" d="M15.1,281c3.5-1.6,4-2.5,6.1-5.3c6.1-8,9.3-17.9,15.8-25.9c10.7-13,22.7-24.9,33.4-37.9
			c20.5-25,43.6-52.4,55.6-82.6c0.7-1.8-1.7-2.6-2.9-1.7c-15.2,12.6-25.7,28.7-38.3,43.8c-13.2,15.8-26.8,31.3-40.9,46.2
			c-10.3,10.8-48.5,46.8-31.3,63C13.3,281.4,14.2,281.4,15.1,281L15.1,281z"/>
	</g>
	<g>
		<path fill="#782D19" d="M129.8,114.1c4.6-5.9,9.2-11.7,13.7-17.7c4.9-6.6,10.9-12.8,14.7-20.1c0.6-1.1-0.7-2-1.7-1.3
			c-11.7,9.7-20.1,25.6-27.1,38.8C129.3,114.1,129.6,114.4,129.8,114.1L129.8,114.1z"/>
	</g>
	<g>
		<path fill="#782D19" d="M174.2,59.4c7.1-5.8,11.8-15,16.5-22.7c4.1-6.8,10.4-14.7,10-22.9c0-0.8-1-1.5-1.8-1
			c-6.8,4.6-9.8,13.7-14,20.6c-4.7,7.9-11.1,15.4-14.3,24C169.8,59.5,172.7,60.6,174.2,59.4L174.2,59.4z"/>
	</g>
	<g>
		<path fill="#782D19" d="M179.6,18c-2.6,28.9,1,58.9-5.6,87.4c-6.2,26.8-22.7,48.8-34.2,73.3c-0.4,0.8,0.6,1.6,1.2,0.9
			c18.7-19,34-42.6,39.4-69.1c6-29.2,3.6-63.1,1.3-92.6C181.6,16.6,179.7,16.6,179.6,18L179.6,18z"/>
	</g>
	<g>
		<path fill="#782D19" d="M94.4,253.3c4.3-4.9,7.9-10.2,12.1-15.2c3.8-4.5,8.2-8.8,11.3-13.8c0.6-0.9-0.6-2-1.5-1.5
			c-10.1,5.8-19.3,18.8-23.7,29.4C92.2,253.2,93.8,254,94.4,253.3L94.4,253.3z"/>
	</g>
	<g>
		<path fill="#782D19" d="M159.9,52.5c-5.4,3.7-11.2,12.1-9.7,19c0.2,1.1,1.6,1.3,2.4,0.6c2.4-2.3,3.6-5.9,5.1-8.7
			c1.6-3.1,3.1-6.1,4.2-9.3C162.3,53,160.8,51.9,159.9,52.5L159.9,52.5z"/>
	</g>
	<g>
		<path fill="#782D19" d="M125,338.2c28.8-50.6,60.7-97.2,101.7-138.7c0.9-0.9-0.4-2.1-1.4-1.4c-22.3,17.5-44.4,34.7-59.7,58.8
			c-16.2,25.6-27.9,53.6-42.5,80.1C122.4,338.3,124.3,339.5,125,338.2L125,338.2z"/>
	</g>
	<g>
		<path fill="#782D19" d="M287.9,114.2c14.8-12.3,25.9-27.8,42.2-38.6c7.5-5,15.6-9.1,24.4-11.1c8.1-1.9,16.2-1.2,24-4.2
			c1.2-0.4,1.7-2.2,0.4-2.9c-14.6-7.7-34.1,2.4-47.1,10.1c-18.1,10.7-35.1,27.2-46.2,45C284.7,113.9,286.7,115.2,287.9,114.2
			L287.9,114.2z"/>
	</g>
	<g>
		<path fill="#782D19" d="M373.2,125.9c-13.3,22.3-23.3,48.4-32.5,72.8c-11,29.2-19.6,54.1-49.4,68.6c-1.9,0.9-0.6,3.9,1.4,3.4
			c23.2-6.3,42.9-29.2,52.7-50.2c6.5-13.9,11-28.4,14.9-43.1c4.5-17,11.5-33.3,14.4-50.7C375,125.7,373.8,125,373.2,125.9
			L373.2,125.9z"/>
	</g>
	<g>
		<path fill="#782D19" d="M139.6,479.6c9-9.3,15.9-19.8,25.9-28.4c8.8-7.5,16.1-15,23.2-24.1c9.4-12.2,18.6-24.4,29.2-35.8
			c8.2-8.9,18.3-16.4,24.3-27c1-1.8-1-3.4-2.7-2.7c-22.3,9.5-40.6,37.7-54,57.3c-8.5,12.4-17.5,21.4-28.4,31.4
			c-8.5,7.8-16.9,16.5-19.3,28C137.5,479.6,138.8,480.5,139.6,479.6L139.6,479.6z"/>
	</g>
	<g>
		<path fill="#782D19" d="M404.5,97.2c-5.9,14.3-7.7,30.6-11.7,45.6c-4,14.5-9.3,26.7-16.1,40c-6.5,12.9-12.9,24.8-21,36.7
			c-9.2,13.6-19.8,23.9-31,35.6c-15.3,16.1-36.3,31.4-44.9,52.6c-3,7.3-4.1,15.4-6.2,22.9c-2.9,10.7-7.5,21.5-7.9,32.9
			c-0.1,3.5,4.5,5.3,6.9,2.9c7.4-7.6,14.9-19.1,15.5-30.1c0.8-13.6-11.1-12.3,0.7-28.9c7.5-10.6,24.2-19.3,33.7-28.5
			c9.2-8.9,17.5-18.6,24.7-29.2c8.9-13,19-25.2,29.3-37.1c9.8-11.3,21.5-19.8,28.4-33.4c5.2-10.4,7.7-22,9.4-33.5
			c2.3-15.9,5.1-32.6,2.4-48.5C415.4,90.3,406.6,92.2,404.5,97.2L404.5,97.2z"/>
	</g>
	<g>
		<path fill="#782D19" d="M287.6,307.9c-3.9,8.9-4.1,18.2-7.6,27.3c-4.7,12-12.3,20-20.7,29.4c-11.8,13.1-14.5,23.9-10.8,40.9
			c0.3,1.6,2.7,1.5,3.1,0c3.4-12.2,7.6-22.9,16.1-32.5c5.6-6.3,11.6-12.1,16.1-19.3c8.2-13.2,10.9-30.1,7.4-45.3
			C290.8,306.8,288.3,306.4,287.6,307.9L287.6,307.9z"/>
	</g>
	<g>
		<path fill="#782D19" d="M323.9,266.6c9.3-11.8,17.8-23.9,27.6-35.4c9.1-10.6,18-20.6,25-32.7c0.9-1.6-1-3.6-2.6-2.6
			c-23.5,14.5-42.4,42.6-55.1,66.8C317.3,265.7,321.5,269.6,323.9,266.6L323.9,266.6z"/>
	</g>
	<g>
		<path fill="#782D19" d="M388.2,221.8c-20.8,35-43,69-62.9,104.5c-9.4,16.8-18.5,33.7-27.7,50.5c-8.5,15.4-20.3,28.6-28.5,43.8
			c-0.7,1.3,0.5,3.4,2.1,2.8c12.6-4.8,19.1-18,25.6-29.2c10.5-18.2,21-36.3,31.3-54.6c21.7-38.5,40.9-78,61.5-117.1
			C390.1,221.7,388.7,220.8,388.2,221.8L388.2,221.8z"/>
	</g>
	<g>
		<path fill="#782D19" d="M191,480.4c10.4-24.3,22.7-52.4,47.2-65.5c23.3-12.5,46.3-10.4,58.6-37.2c0.6-1.3-0.7-2.9-2.1-2.1
			c-5.7,3.6-10.4,6.7-15.5,11c-8.6,7.2-16.5,9.4-27.2,11.9c-13.6,3.2-24.7,8.3-36.5,15.7c-22.3,14-38.7,34.6-38.5,62.3
			C177.1,483.5,187.9,487.6,191,480.4L191,480.4z"/>
	</g>
	<g>
		<path fill="#782D19" d="M257.2,401.9c-4.4,1.9-6.5,4.2-10.2,6.9c-5.5,4.1-11.5,6.7-17.5,9.9c-7.9,4.1-12.2,7.9-17.8,14.7
			c-5.6,6.9-13.5,11.6-16.2,20.3c-2.5,8-2.5,19.5-1.5,27.7c0.5,4.3,5.4,7.1,8.9,3.7c4.8-4.7,5.1-8.9,5.5-15.5
			c0.6-12.2,5.8-16.7,11.6-26.6c3.1-5.3,4-8.5,8.7-12.8c4.4-4,9.8-5.9,14.5-9.4c6.4-4.7,10-11.5,15.3-17.2
			C259.4,402.6,258.3,401.4,257.2,401.9L257.2,401.9z"/>
	</g>
	<g>
		<path fill="#782D19" d="M188.8,463.1c-4.8-0.2-8.5,4.2-10.7,8c-3.1,5.3-3.1,11.6-2,17.5c1.5,7.8,15,6.1,14-1.9
			c-0.9-7.2-0.5-13.8,2.1-20.7c2.9-7.7-8.8-11.9-12.9-5.4c-3.5,5.5-5.4,12.1-5.1,18.6c0.3,5.9,3.4,14.6,10.9,13.7
			c6.2-0.8,9.8-8.9,3.4-12.6c-1.2-0.7-0.2,0.5-0.4-1.1c-0.1-1.3-0.1-2.7,0.1-3.9c0.4-2.8,1.7-5.2,3.2-7.6c-4.3-1.8-8.6-3.6-12.9-5.4
			c-3.4,8.4-4.2,17.4-2.5,26.3c4.6-1.3,9.2-2.5,13.7-3.8c-0.9-3.5-0.8-7-0.6-10.7c0.2-3.3,1.2-6.5,0.8-9.8
			C189.9,463.7,189.5,463.1,188.8,463.1L188.8,463.1z"/>
	</g>
	<g>
		<path fill="#782D19" d="M185.1,479.5c1.1,7.7,5.7,16.4,14.7,13.3c10.6-3.7,0-17.8-6.1-10.5c-1.2,0.9-2.4,1.7-3.7,2.6
			c1.6,2.1,3.3,4.2,4.9,6.3c1-1.2,10.6-0.4,13.3-1.3c6-2.1,11.1-6.8,15.7-11c13-12.1,27.5-25.4,36-41.2c1-1.9-1-3.7-2.8-2.8
			c-16.3,8.2-29,22.7-42.1,35c-6.8,6.4-13,7.8-21.1,11.2c-3.4,1.4-4.8,2.7-5.6,6.2c-0.5,2.3,1.1,5.4,3.9,5.1
			c1.5,0.1,2.9,0.3,4.4,0.4c0-4,0-8.1,0-12.1c2.2-0.7-2.8-4.8-2.5-4.5c-1.3-1.2-3.2-1.9-5-1.3c-0.5,0.2-1,0.3-1.5,0.5
			C185.6,476,184.8,477.6,185.1,479.5L185.1,479.5z"/>
	</g>
	<g>
		<path fill="#782D19" d="M193.7,491.7c0.8-0.1,1.5-0.1,2.3-0.2c3.6,0.4,3.7-5.6,0-5.7c-5.2-0.2-10.4,0.1-15.6-0.3
			c1.6,1.6,3.3,3.3,4.9,4.9c0.3-4.9,0-10.4-3.8-14c-0.7-0.7-1.8-0.7-2.6,0c-3.7,3.7-3.9,9.1-3.5,14c0.3,3.3,2.9,5.4,6.2,4.7
			c5.1-1,10.1-1.9,15-3.8c-1.2-1.2-2.3-2.3-3.5-3.5c-0.3,0.5-0.6,1-0.9,1.5C190.9,490.2,192.2,492.5,193.7,491.7L193.7,491.7z"/>
	</g>
	<g>
		<path fill="#782D19" d="M236.5,456.5c11.6-10.4,28-12,39.7-22.4c11.4-10.1,20.1-22.4,29.7-34c1.4-1.7,0.7-5-2-4.8
			c-17.7,1.2-26.3,14.5-37.8,25.9c-11.3,11.2-28.3,17.1-33.7,32.9C231.6,456.6,234.8,458.1,236.5,456.5L236.5,456.5z"/>
	</g>
	<g>
		<path fill="#782D19" d="M292.2,408.9c19.5-11.4,36.1-33.6,51.9-49.7c9.6-9.7,19.2-19.4,29.1-28.8c7.7-7.2,14.9-12.2,18.1-22.3
			c0.6-1.8-1.3-3.7-3.1-3.1c-10.1,3.5-14.7,10.7-21.8,18.6c-9.1,10.2-18.5,20.1-28,29.9c-15.6,16.2-37.5,33.6-48.3,53.3
			C289.4,408.1,290.8,409.6,292.2,408.9L292.2,408.9z"/>
	</g>
	<g>
		<path fill="#782D19" d="M377.8,317.5c11.6-5.6,14.3-21,17.6-32.4c5.2-17.8,10-34.2,18.8-50.7c14.1-26.1,39.9-50.4,45.6-80.3
			c0.5-2.5-2.7-3.9-4.1-1.7c-9.6,15-18.4,29.5-29.4,43.7c-9.2,11.8-19.9,22.6-28,35.3c-8,12.5-12.7,26.5-15.7,41
			c-2.8,13.2-9.6,31-7,44.3C375.8,317.6,377,317.9,377.8,317.5L377.8,317.5z"/>
	</g>
	<g>
		<path fill="#782D19" d="M391.3,295c-1.8,8.5-5.8,17-10.7,24.2c1.6,0.9,3.1,1.8,4.7,2.7c8.7-14.9,15.8-33.7,13.1-51.3
			c-0.2-1.2-2-1.1-2.3,0c-3.8,17.5-6.1,32.8-15.5,48.5c-1.8,3,2.8,5.7,4.7,2.7c5.7-8.8,7.7-16.3,8-26.6
			C393.4,294.2,391.6,293.9,391.3,295L391.3,295z"/>
	</g>
	<g>
		<path fill="#782D19" d="M350.1,449.5c8.3-29.2,30-52.2,49.1-75c8-9.5,15.3-16.7,19.7-28.8c4.6-12.7,14.8-20.9,21.7-32.4
			c7.3-12.1,10.9-23.1,14.7-36.5c4.4-15.6,14.5-27.1,20.9-41.5c8.4-18.9,12.5-38.7-1.6-55.4c-1-1.2-3,0.1-2.6,1.5
			c3.5,12.6,0.4,27.3-4.1,39.3c-4.7,12.6-7.7,26.9-13.4,39c-5.8,12.4-16.6,21.6-23.4,33.5c-5.5,9.6-9.5,19-13.5,29.1
			c-4.6,11.9-13.2,17.1-20.2,27.5c-4.6,6.7-7.3,14.4-11.8,21.2c-3.4,5.2-7.6,9.7-10.9,15c-11.7,19-23.2,40.7-28.8,62.4
			C345.4,451,349.3,452.1,350.1,449.5L350.1,449.5z"/>
	</g>
	<g>
		<path fill="#782D19" d="M476.1,231.6c6.9-1.6,10.4-8.6,12.2-14.9c1.1-3.8,2.7-6.3,1.6-10.4c-0.8-2.9-3.2-6-6.3-6.5
			c-0.8-0.1-1.9,0.1-2.3,0.9c-1.8,4.2-0.5,8.4,0.5,12.6c1.4,6.3-3.7,10.9-7.5,15.1C473,229.8,474.2,232,476.1,231.6L476.1,231.6z"/>
	</g>
	<g>
		<path fill="#782D19" d="M467.1,239.4c-5.3,8.1-9.1,17.1-13.7,25.6c-4.1,7.6-8.8,15-11.7,23.2c-0.4,1.2,1.3,2.2,2.1,1.2
			c11.4-12.9,20.3-33,23.9-49.8C467.8,239.3,467.3,239.1,467.1,239.4L467.1,239.4z"/>
	</g>
	<g opacity="0.34">
		<path fill="#381013" d="M269.7,15.8c-3.6,4.6-3.2,7.7-4.3,13.8c-1.7,9.2-5,17.7-9,26.1c-5.7,11.9-13.3,22.3-10,35.9
			c0.5,2.1,3,2.4,4.5,1.2c12.7-10.9,41.9-64.4,20.5-77.2C270.9,15.3,270.1,15.3,269.7,15.8L269.7,15.8z"/>
	</g>
	<g opacity="0.34">
		<path fill="#381013" d="M266.1,54.5c-3.6,17.6-11.5,32.3-22.1,46.6c-9.4,12.6-19.7,24.5-24.6,39.7c-0.4,1.3,1.5,2.5,2.4,1.4
			c19.4-24.1,43.8-55.3,46-87.4C267.8,53.8,266.3,53.6,266.1,54.5L266.1,54.5z"/>
	</g>
	<g opacity="0.34">
		<path fill="#381013" d="M256.5,39.7c-8.6,12.8-25.7,31.1-21.3,47.9c0.4,1.5,2.1,2.1,3.4,1.4c7.8-4.4,10.3-12.7,13.6-20.6
			c3.7-8.7,5.7-17.9,8.9-26.8C262.1,38.9,258,37.5,256.5,39.7L256.5,39.7z"/>
	</g>
	<g opacity="0.34">
		<path fill="#381013" d="M259.6,64.5c-10.9,15-18.9,30.9-27.6,47.3c-5.5,10.2-8.6,21.7-15.1,31.4c-4.3,6.4-9.5,12-13.7,18.6
			c-10,15.8-20.7,26.9-34.8,39c-10.4,8.9-17.7,18.7-21.4,32c-0.5,1.7,1.8,3.1,3.1,1.8c21.6-23.7,49.5-40.6,64.5-69.4
			c3.2-6.2,4.9-12.5,7.6-18.9c4.4-10.7,12.5-19.5,17.8-29.8c8.7-16.9,16.6-32.7,21.7-51.1C261.9,64.1,260.3,63.6,259.6,64.5
			L259.6,64.5z"/>
	</g>
	<g opacity="0.34">
		<path fill="#381013" d="M12.9,267.3c2.3,5,6.6,5.1,11.2,2c5.2-3.3,7.3-13.2,10.8-18.3c6.4-9.3,15.1-16.8,23.3-24.5
			c12.8-12.1,22.3-25.4,32.5-39.7c11.5-16,25.3-30.5,36.4-46.6c0.7-1-0.6-2.1-1.6-1.6c-24,13.2-38.3,44.2-56.3,63.9
			c-9.8,10.7-20.7,20.6-30.2,31.6c-4.8,5.6-17.1,33.9-25.5,32.3C13.1,266.3,12.7,266.8,12.9,267.3L12.9,267.3z"/>
	</g>
	<g opacity="0.34">
		<path fill="#381013" d="M132.7,116c11.4-11.9,20.7-26.7,28.3-41.2c0.6-1.1-0.8-2.1-1.7-1.3c-12.4,11-23.4,25.5-28.8,41.3
			C130.2,115.9,131.9,116.8,132.7,116L132.7,116z"/>
	</g>
	<g opacity="0.34">
		<path fill="#381013" d="M158.9,75.1c8.5-10.4,17.3-20.5,25.5-31.1c5.8-7.4,11.4-15.3,9.6-25.1c-0.1-0.8-1.4-0.8-1.6,0
			c-4.1,21.4-21.7,38.2-34.7,55C157.1,74.7,158.2,75.9,158.9,75.1L158.9,75.1z"/>
	</g>
	<g opacity="0.34">
		<path fill="#381013" d="M176.7,20.2c-1,29-1.5,57.4-7.5,86c-5.4,26-17.8,46.9-28.7,70.6c-0.8,1.8,1.4,3.1,2.6,1.5
			C175.4,135,185.8,72.8,178.5,20C178.3,18.9,176.7,19.2,176.7,20.2L176.7,20.2z"/>
	</g>
	<g opacity="0.34">
		<path fill="#381013" d="M41,402.1c18.6-19.9,28.7-45.6,42.2-68.8c12.3-21.2,36.1-27.3,44.7-51.7c0.4-1.1-1.2-1.5-1.8-0.8
			C110.5,301,87,311.1,71.5,331.8c-14.4,19.1-26.8,46-32.2,69.2C39,402,40.2,402.8,41,402.1L41,402.1z"/>
	</g>
	<g opacity="0.34">
		<path fill="#381013" d="M95,315.2c28.7-14,40.9-48.5,54.9-74.8c9.3-17.6,18.8-30.9,33.6-44c11.3-9.9,21-19.6,21.6-35.1
			c0.1-1.5-2-1.6-2.5-0.3c-7.1,19.3-24.9,27.2-39.7,39.4c-11.3,9.5-19.8,18.9-26.7,32.1c-14.4,27.7-22.7,56.2-42.9,80.7
			C92.4,314.2,93.6,315.8,95,315.2L95,315.2z"/>
	</g>
	<g opacity="0.34">
		<path fill="#381013" d="M161.6,194.2c6.6-5,40.3-26.5,23.6-36.7c-1.1-0.7-2.6-0.4-3.5,0.5c-4.3,4.1-7.9,9-11.6,13.6
			c-4.9,6.1-7.7,12.8-11.6,19.5C157.4,192.9,159.7,195.6,161.6,194.2L161.6,194.2z"/>
	</g>
	<g opacity="0.34">
		<path fill="#381013" d="M182.7,182.3c8.8-7.6,15.7-16.7,21.9-26.4c6.7-10.6,14.5-20.8,20.4-31.9c0.4-0.8-0.7-1.8-1.3-1
			c-8.1,9.5-14.6,20.5-22.3,30.5c-7,9.1-14,18.1-20.3,27.7C180.5,182.1,181.9,183,182.7,182.3L182.7,182.3z"/>
	</g>
	<g opacity="0.34">
		<path fill="#381013" d="M191.5,176.7c10-16.6,21.5-32.1,30.8-49.1c0.6-1.1-0.9-2.3-1.8-1.4c-14,14-23.5,31-32.6,48.5
			C186.8,177,190.1,179,191.5,176.7L191.5,176.7z"/>
	</g>
	<g opacity="0.65">
		<path fill="#381013" d="M101.8,308.3c18.3-4.2,26.7-22.8,32.6-38.9c9.4-25.8,24.4-46,38.2-69.5c1.4-2.3-1.3-4.6-3.5-3.5
			c-18.4,9-28.5,24.7-34.3,44.1c-7.8,26.2-12.1,47.7-34,66.1C99.9,307.3,100.8,308.5,101.8,308.3L101.8,308.3z"/>
	</g>
	<g opacity="0.65">
		<path fill="#381013" d="M215.5,151.2c12-20.6,24.8-40.3,37.9-60c8.4-12.7,9.2-28.1,12.8-42.5c0.3-1.3-1.3-2.3-2.3-1.3
			c-4.9,4.8-6.5,8.8-7.8,15.5c-2.2,11.2-3.7,19.5-10.1,29.3c-12.3,18.8-22,38.1-32.3,58C213.1,151.3,214.8,152.4,215.5,151.2
			L215.5,151.2z"/>
	</g>
	<g opacity="0.65">
		<path fill="#381013" d="M264.2,5.8c0.6-0.8,0.5-0.7-0.2,0.2c-0.3,0.4-0.4,0.9-0.4,1.4c-0.2,1-0.1,1.8,0.1,2.7
			c0.4,1.8,1.1,3.5,2.2,5c2,2.9,5.2,6.5,8.9,7c2.1,0.3,4.2-0.2,5.3-2.2c1.1-1.8,0.7-4.2-0.7-5.7c-1.8-2-4.4-3.1-6.3-5.1
			c-1.8-1.9-3.3-4.9-6.2-5c0.7,0.3,1.4,0.6,2.1,0.9c-0.2-0.1-0.3-0.3-0.5-0.4C267,3.5,264.8,3.9,264.2,5.8L264.2,5.8z"/>
	</g>
	<g opacity="0.65">
		<path fill="#381013" d="M259.1,17c-12.5,11.8-25,25.9-33.4,41c-0.5,0.9,0.7,1.9,1.5,1.1c12.5-12,23.3-27,32.7-41.5
			C260.1,17.1,259.5,16.6,259.1,17L259.1,17z"/>
	</g>
	<g opacity="0.37">
		<path fill="#381013" d="M270.6,15.7c-3.9,5.2-4.2,12.8-4.5,19.2c-0.4,7.3,0.5,14.8,3.1,21.6c0.5,1.3,2.5,1.6,2.9,0
			c1.6-6.6,2.2-13.4,2.6-20.1c0.4-6.5,2-13.9-0.1-20.2C273.8,14.3,271.7,14.2,270.6,15.7L270.6,15.7z"/>
	</g>
	<g opacity="0.37">
		<path fill="#381013" d="M120.4,250.5c-7,13.5-13.1,27.7-19.2,41.7c-7.2,16.7-18.1,28.5-29.1,42.7c-0.8,1,0.3,2.9,1.5,2
			c26.3-19.3,44.8-52.9,51.3-84.5C125.4,249.8,121.7,247.8,120.4,250.5L120.4,250.5z"/>
	</g>
	<g opacity="0.37">
		<path fill="#381013" d="M129.1,330.2c6.8-8.4,12.5-17.6,18.7-26.4c8.5-12.2,18.6-22.7,27.9-34.2c14.8-18.4,29.2-37.7,41.7-57.7
			c0.7-1.1-0.9-2.2-1.8-1.4c-17.3,16.1-32.9,34.7-46.5,54.1c-7.3,10.5-13,21.9-20.4,32.4c-7.3,10.5-15.1,20.8-21.2,32
			C127,330,128.3,331.1,129.1,330.2L129.1,330.2z"/>
	</g>
	<g opacity="0.37">
		<path fill="#381013" d="M145,477.2c17.4-15.4,32.5-34.1,46.7-52.5c13.3-17.1,24.6-35.8,43.4-47.5c0.6-0.4,0.2-1.6-0.5-1.3
			c-17.2,6.9-28.5,20.9-39.5,35.2c-16.8,22-35.5,42.4-52.3,64.4C141.9,476.8,143.9,478.1,145,477.2L145,477.2z"/>
	</g>
	<g opacity="0.37">
		<path fill="#381013" d="M203.7,480c2.7-9.5,5.4-18.9,9.5-27.9c2-4.3,7.4-13.5-0.1-15.7c-7.4-2.3-11.2,9.5-13.2,14.4
			c-3.5,8.9-5.1,18.7-4,28.2C196.4,483.1,202.4,484.6,203.7,480L203.7,480z"/>
	</g>
	<g opacity="0.37">
		<path fill="#381013" d="M212,439.9c6.8-5.1,13.7-10.1,20.4-15.4c6.3-5,17.1-9.9,19.8-17.9c0.3-1-0.6-2.2-1.6-2.1
			c-8.3,0.9-15.1,9.8-21.3,14.8c-7,5.7-14.4,11.1-18.8,19.2C210.1,439.3,211.1,440.5,212,439.9L212,439.9z"/>
	</g>
	<g opacity="0.37">
		<path fill="#381013" d="M212.7,478.9c-1.8-2.3-3.4-1.9-5.1,1.1c-3.3,2.2-7,3.5-11.1,3.9c0.3,2.2,0.6,4.5,0.9,6.7
			c22-3.6,54.6-25.8,57.2-49.9c0.2-1.6-2-2.3-3.1-1.3c-8.1,7.9-13.1,18.4-21.8,26.1c-10.2,9-21.7,13.7-34.2,18.5
			c-4,1.5-2.5,7.9,1.8,6.6c6.2-1.9,13-4,17.3-9.1c0.8-0.9,1.2-2.3,0.4-3.5c-0.2-0.3-0.4-0.6-0.6-0.9c-0.6-0.9-1.9-1.5-2.9-0.8
			c-1.1,0.8-1.7,1.8-0.9,3C211.4,480.1,212.8,480,212.7,478.9L212.7,478.9z"/>
	</g>
	<g opacity="0.37">
		<path fill="#381013" d="M242.2,459c5.3-15.9,25.5-19.7,37.1-30.4c9.5-8.7,15.5-20.2,15.3-33.2c0-1.5-1.7-2.1-2.8-1.1
			c-6.3,5.6-11,12.4-16.9,18.5c-6.7,7-13.9,12-22.2,16.9c-10.7,6.3-21.9,15.5-17.6,29.3C236.2,462.6,241.1,462.5,242.2,459
			L242.2,459z"/>
	</g>
	<g opacity="0.37">
		<path fill="#381013" d="M232.8,464.6c9.1-13.8,24-19.4,36.8-28.9c11.6-8.6,20.3-17.7,25.8-31.1c0.5-1.3-1.2-2.2-2.2-1.7
			c-15.8,8.1-28.3,20.1-42.1,31.2c-9.7,7.7-21.2,16.3-20.6,30C230.5,465.3,232.1,465.7,232.8,464.6L232.8,464.6z"/>
	</g>
	<g opacity="0.37">
		<path fill="#381013" d="M284.5,417.8c16.9-25.4,33.8-55.2,39.7-85.5c0.3-1.4-1.7-2.5-2.4-1c-14.2,27.8-24.6,57.6-38.8,85.6
			C282.4,418,283.9,418.8,284.5,417.8L284.5,417.8z"/>
	</g>
	<g opacity="0.37">
		<path fill="#381013" d="M292,300c-7,2.1-9.5,8.1-10.7,14.8c-1.1,6-0.4,12.3-1.7,18.3c-1.2,5.8-3.7,11.2-5.3,16.9
			c-0.3,1.2,1.1,2.6,2.3,1.7c15.8-11.7,8.6-34.6,16.3-50.6C293.2,300.6,292.7,299.8,292,300L292,300z"/>
	</g>
	<g opacity="0.37">
		<path fill="#381013" d="M277.6,350.2c-6.9,9.3-15.5,19.4-19.7,30.2c-0.3,0.7,0.8,1.3,1.3,0.8c3.6-4.3,6.2-9.6,9.2-14.3
			c3.5-5.3,7.1-10.6,10.8-15.7C279.9,350.1,278.3,349.2,277.6,350.2L277.6,350.2z"/>
	</g>
	<g opacity="0.37">
		<path fill="#381013" d="M295.6,301.2c19.7-19.6,39.5-38.4,54.5-62c1-1.6-1.2-3-2.5-1.9C327.3,254,306,276.2,294.1,300
			C293.7,301,294.8,302,295.6,301.2L295.6,301.2z"/>
	</g>
	<g opacity="0.37">
		<path fill="#381013" d="M407.6,100.7c-4,8.2-5.4,17.5-7.1,26.4c-1.6,8.2-2.7,16.1-1.5,24.4c0.3,2.2,3.5,2.3,4.5,0.6
			c4.3-7.5,6.1-15.7,7.6-24.1c1.5-8.3,3.6-17.2,2.9-25.7C413.7,99.4,409.2,97.4,407.6,100.7L407.6,100.7z"/>
	</g>
	<g opacity="0.37">
		<path fill="#381013" d="M412.1,100.8c0.9-1.2,2-2.3,3.2-3.2c-1.3-1-2.7-2.1-4-3.1c-5.6,7.6-7.3,18-9.6,27
			c-2.4,9.2-4.3,18.7-4.6,28.3c-0.1,1.9,2.7,2.7,3.6,1c4.5-8.5,7.6-17.5,10.2-26.7c2.5-9,6.3-18.9,5.3-28.3c-0.4-3.7-6-2.9-5,0.7
			c-0.2,1-0.4,2-0.6,3.1C409.8,100.5,411.3,101.7,412.1,100.8L412.1,100.8z"/>
	</g>
	<g opacity="0.37">
		<path fill="#381013" d="M412.2,113.8c2.6-5.2,5.3-10.3,7.9-15.5c-1.9-1.5-3.8-2.9-5.7-4.4c-4.8,14.7-5.4,30.7-9.1,45.8
			c-3.7,15.2-7.7,30.2-12.2,45.1c-0.6,1.9,2.1,2.9,3.1,1.3c16.5-25.3,31-61.6,25.7-92.3c-0.7-4.1-6.4-3.3-7.5,0
			c-2.3,6.8-4.3,12.8-4.4,19.9C410,115.2,412.2,115.2,412.2,113.8L412.2,113.8z"/>
	</g>
	<g opacity="0.37">
		<path fill="#381013" d="M413.5,119.1c-6.4,15.3-6.6,32.7-12.9,48.3c-6.8,16.8-20.5,27.6-29.9,42.6c-0.8,1.3,0.8,3,2.1,2.1
			c27.2-18.8,43.5-60.5,42-92.9C414.8,118.5,413.8,118.4,413.5,119.1L413.5,119.1z"/>
	</g>
	<g opacity="0.37">
		<path fill="#381013" d="M389.7,189.6c-9.6,13.6-22.3,26.1-29.2,41.4c-0.5,1.1,0.8,2.3,1.7,1.3c12.1-11.8,19.6-28,29.2-41.7
			C392.1,189.6,390.4,188.6,389.7,189.6L389.7,189.6z"/>
	</g>
	<g opacity="0.37">
		<path fill="#381013" d="M358.2,169.2c-3.5,0-5.2,2.1-5.1,6.4c-1.5,3.9-3,7.7-4.5,11.5c-3.4,8.5-7.1,16.8-10.9,25
			c-6.6,14-14,27.6-20.2,41.8c-0.5,1.1,0.9,1.8,1.5,0.9c19.3-26.5,31.4-59.2,40.6-90.4c0.4-1.2-1.2-1.7-1.9-0.8
			c-2.2,2.9-1.9,1.8-1.5,5.5C356.3,170.5,358.4,170.5,358.2,169.2L358.2,169.2z"/>
	</g>
	<g opacity="0.37">
		<path fill="#381013" d="M293.5,111c7.5-14.4,21.9-23.2,35.2-31.9c11.9-7.7,30.6-22,45.5-19.1c9.7,1.9,5.9-13.5-1.2-8.8
			c-8.2,5.4-18.8,7.6-27.6,12c-9.3,4.6-17.7,10.7-26.1,16.7c-11.7,8.4-22.9,16.1-27.7,30.3C291.3,111.3,293,112,293.5,111L293.5,111
			z"/>
	</g>
	<g opacity="0.37">
		<path fill="#381013" d="M402.3,244.2c-0.8,4.9-2.6,9.3-3.9,14.1c-0.2,0.6,0.7,1,1,0.4c2.8-4.1,3.9-9.2,4.7-14
			C404.3,243.5,402.5,243,402.3,244.2L402.3,244.2z"/>
	</g>
	<g opacity="0.37">
		<path fill="#381013" d="M390.1,296.1c-4.2,6.4-7.5,12.9-10.4,20c2,0.6,4,1.1,6.1,1.7c7.6-27.2,17.7-55,28.8-81
			c11.3-26.6,34.6-47.5,47.6-73.4c1.1-2.1-1.7-4.7-3.5-2.7c-19.4,22.2-32.4,49.6-49.2,73.7c-16.8,24.1-20.2,54.6-29.7,81.8
			c-1.4,3.9,4.6,5.4,6.1,1.7c2.7-6.9,4.7-13.6,6.1-20.9C392,295.8,390.7,295.2,390.1,296.1L390.1,296.1z"/>
	</g>
	<g opacity="0.37">
		<path fill="#381013" d="M208.5,492.1c27.3-9.8,48.6-30.2,68.8-50.3c25.4-25.2,49.4-51.8,74.2-77.6c19.3-20.1,40.4-39,48.7-66.4
			c4.3-14.1,5.9-28.8,10.2-42.9c4.8-15.6,14-26,23.3-38.9c1.1-1.5-0.7-3.1-2.2-2.9c-22.8,3.6-30.2,32.8-34.1,52
			c-3.2,16-4.9,32.6-13.2,47c-8.2,14.3-22.1,25.6-33.5,37.4c-46.7,48.2-92.4,96.9-143.6,140.4C206.3,490.7,207.3,492.5,208.5,492.1
			L208.5,492.1z"/>
	</g>
	<g opacity="0.37">
		<path fill="#381013" d="M381.4,231c-13.5,27.6-27.6,54.8-43.9,80.9c-7.9,12.7-15.6,25.5-22.9,38.6c-6.1,11.1-13.8,21.9-14.9,34.7
			c-0.3,3.1,4.2,4.8,6.2,2.6c9.2-10.5,13.4-25.3,20-37.6c7.1-13.2,14.5-26.1,21.9-39.1c14.4-25.3,29.2-50.4,35.7-79.1
			C383.9,230.6,382,229.7,381.4,231L381.4,231z"/>
	</g>
	<g opacity="0.37">
		<path fill="#381013" d="M350.3,453.8c12.9-21.4,23.1-44,37.5-64.5c12.1-17.2,30.8-31.6,39.1-51.3c1.4-3.4,1.6-7.5,3-10.8
			c3.3-7.7,10-13.2,15.2-19.5c5.7-6.8,10.1-14.4,13.8-22.5c8.5-18.6,13.3-38.7,24.3-56.1c0.7-1.1-0.8-2.2-1.8-1.4
			c-14.1,12-20.1,27.8-26.7,44.5c-8.9,22.3-25.8,36.8-36.6,57.7c-10,19.3-26.9,32.9-37.5,51.7c-12.5,22.1-23.5,46.7-34.1,69.8
			C345.3,454.1,348.8,456.3,350.3,453.8L350.3,453.8z"/>
	</g>
	<g opacity="0.64">
		<path fill="#240A0C" d="M264.6,12.7c3.8-0.2-4.8,44.6-6,48.8c-5.4,18.1-14.7,34.8-23,51.6c-0.6,1.3,1,2.8,2.1,1.6
			c23.2-25,38-70,31.4-103.9c-0.2-0.8-1.3-1.2-2-0.8c-0.9,0.6-1.9,1.2-2.8,1.8C264,12,264.1,12.7,264.6,12.7L264.6,12.7z"/>
	</g>
	<g opacity="0.64">
		<path fill="#240A0C" d="M291.4,303c-2.7,16.5-3.5,33.1-13.8,47c-0.5,0.7,0.6,1.4,1.1,0.9c12.1-10.5,12.3-32.6,14.7-47.3
			C293.7,302.3,291.6,301.7,291.4,303L291.4,303z"/>
	</g>
	<g opacity="0.64">
		<path fill="#240A0C" d="M292.4,303.3c10.2-8.6,22.6-16.1,31.3-26.3c0.8-0.9-0.2-2.2-1.3-1.7c-12.3,5.7-22.2,16.9-31.5,26.4
			C289.8,302.8,291.3,304.2,292.4,303.3L292.4,303.3z"/>
	</g>
	<g opacity="0.64">
		<path fill="#240A0C" d="M220.6,429.7c4.4,0.5,9.4-2.8,12.9-5c4.1-2.5,7.6-5.6,10-9.8c0.4-0.8-0.4-1.5-1.2-1.2
			c-4.4,2.3-8.2,5.4-12.3,8.1c-3.3,2.2-7.7,3.7-10.1,6.9C219.7,429.1,220.2,429.7,220.6,429.7L220.6,429.7z"/>
	</g>
	<g opacity="0.64">
		<path fill="#240A0C" d="M218.7,422.2c5.1-0.9,10-3.3,14.7-5.4c4.7-2.1,9.6-4,13.5-7.6c0.6-0.6,0.2-1.9-0.8-1.8
			c-5,0.6-9.5,2.9-14,5c-5,2.4-10.1,4.6-14.4,8.1C216.8,421.2,217.8,422.4,218.7,422.2L218.7,422.2z"/>
	</g>
	<g opacity="0.64">
		<path fill="#240A0C" d="M250,407.5c2.5-3.6,5.8-6.7,8.4-10.2c0.3-0.5-0.2-1.3-0.8-1c-4.5,1.9-7.2,6.4-8.6,10.8
			C248.8,407.7,249.6,408,250,407.5L250,407.5z"/>
	</g>
	<g opacity="0.64">
		<path fill="#240A0C" d="M226.3,470.6c14.3-10.5,21.6-27,37.4-35.1c15.3-7.8,28.9-22.4,37.2-37.2c0.5-0.9-0.7-1.8-1.4-1.1
			c-14.1,14.1-29.9,24.8-45.2,37.4c-3.7,3-6.2,6.2-8.8,10.1c-6.3,9.1-12.9,16.4-20.3,24.6C224.6,469.9,225.5,471.2,226.3,470.6
			L226.3,470.6z"/>
	</g>
	<g opacity="0.64">
		<path fill="#240A0C" d="M367.5,333.4c30.3-26.5,40-63.9,45.3-102.5c0.1-0.6-0.8-1.2-1.2-0.5c-7,16.4-12.5,34.4-17.2,51.7
			c-5.5,20.4-15.2,34.1-27.8,50.7C366.3,333.2,367.1,333.7,367.5,333.4L367.5,333.4z"/>
	</g>
	<g opacity="0.64">
		<path fill="#240A0C" d="M393,257.1c5.3-13,13.2-24,21.6-35.1c0.4-0.6-0.5-1.1-0.9-0.7c-10.8,9.3-17.6,22.1-22.2,35.4
			C391,257.7,392.6,258,393,257.1L393,257.1z"/>
	</g>
	<g opacity="0.64">
		<path fill="#240A0C" d="M421,215.9c1.9-1.5,3.3-3.7,3.4-6.1c0-0.4-0.5-0.4-0.6-0.1c-0.6,2.2-1.6,4-3.5,5.4
			C419.7,215.5,420.3,216.4,421,215.9L421,215.9z"/>
	</g>
	<g opacity="0.64">
		<path fill="#240A0C" d="M408.2,102.6c-1.1,0.4-7.7,31.6-9.3,35.8c-4.6,12.5-10.2,24.7-15.9,36.8c-0.6,1.3,1,2.1,1.8,1.1
			c9.1-11.9,15.7-24.6,20.5-38.7c3.4-9.9,10.1-25.7,6.6-36.1c-0.2-0.6-0.9-1.3-1.6-1.2c-1.8,0.2-1.7,0.1-2.8,1.6
			C407.3,102.2,407.8,102.7,408.2,102.6L408.2,102.6z"/>
	</g>
	<g opacity="0.64">
		<path fill="#240A0C" d="M421.8,322.3c7.1,0.4,13.6-7.2,17.7-12.2c4.9-6.1,8.5-12.6,8.6-20.6c0-1-1.2-1.1-1.7-0.4
			c-4.6,6.2-8.1,13.2-13.1,19.2c-3.8,4.5-9.7,8.1-11.9,13.6C421.4,322.1,421.6,322.3,421.8,322.3L421.8,322.3z"/>
	</g>
	<g opacity="0.64">
		<path fill="#240A0C" d="M396.7,370.5c0,0.2,0,0.4,0,0.6c0,0.9,0.8,1.6,1.6,1.6c5.4,0.2,8.7-9,11-12.8c4.7-7.6,9.3-15.1,12.6-23.4
			c0.3-0.8-0.9-1.4-1.4-0.8c-4.2,4.7-7.8,9.8-11.2,15.1c-1.2,1.8-10.1,18.9-11.3,18.7C397.3,369.4,396.7,369.8,396.7,370.5
			L396.7,370.5z"/>
	</g>
	<g opacity="0.64">
		<path fill="#240A0C" d="M475.6,216.3c-1.5,4.7-3.2,9.4-3.8,14.3c-0.1,0.9,1.2,1.1,1.6,0.4c2.4-4.4,3.8-9.2,5.3-13.9
			C479.4,215.1,476.3,214.3,475.6,216.3L475.6,216.3z"/>
	</g>
	<g opacity="0.64">
		<path fill="#240A0C" d="M51.8,378.7c8.1-6.1,14.1-16.2,18.3-25.3c0.4-0.9-0.6-1.8-1.4-1.1c-7.6,6.5-15.5,15.2-19.1,24.6
			C49,378.1,50.7,379.5,51.8,378.7L51.8,378.7z"/>
	</g>
	<g opacity="0.64">
		<path fill="#240A0C" d="M31.6,253.4c5.3-7.1,10.6-14.2,14.5-22.3c0.4-0.9-0.7-1.8-1.4-1.1c-6.3,6.5-11.2,14-16.1,21.6
			C27.4,253.6,30.3,255.2,31.6,253.4L31.6,253.4z"/>
	</g>
	<g opacity="0.64">
		<path fill="#240A0C" d="M132.8,115.6c8.6-12.1,14.9-25.7,21.9-38.8c0.2-0.3-0.3-0.6-0.5-0.3c-8.1,12.4-17.1,24.5-23.5,37.9
			C130.1,115.8,131.9,116.9,132.8,115.6L132.8,115.6z"/>
	</g>
	<g opacity="0.25">
		<path fill="#E69E97" d="M146.5,464.3c17.1-13.1,32.5-29.8,46.2-46.3c13.8-16.7,25.1-35.4,42.3-48.9c0.5-0.4-0.1-1.2-0.7-0.9
			c-17.5,10-27.9,27.5-40.3,42.9c-15,18.7-31.8,35.1-48.2,52.4C145.5,463.8,146,464.7,146.5,464.3L146.5,464.3z"/>
	</g>
	<g opacity="0.25">
		<path fill="#E69E97" d="M188.5,481.4c-0.8-0.3,6.4-26.3,6.8-28.7c0.2-0.8-1-1.4-1.4-0.6c-1.8,3.1-14.5,32.9-5.4,30.4
			C189.1,482.4,189,481.6,188.5,481.4L188.5,481.4z"/>
	</g>
	<g opacity="0.25">
		<path fill="#E69E97" d="M195.8,445c10.2-8.2,20.3-16.7,29.8-25.6c0.6-0.6-0.2-1.5-0.8-1.1c-11.7,6.4-21.8,15.5-29.9,26
			C194.5,444.9,195.3,445.4,195.8,445L195.8,445z"/>
	</g>
	<g opacity="0.25">
		<path fill="#E69E97" d="M265.7,362.2c6.6-9.7,10.9-20.2,15-31.1c4.4-11.8,9.6-23.4,11-36c0.1-0.9-1.3-1.2-1.7-0.5
			c-5.3,9.9-7.4,20.7-10.4,31.3c-3.5,12.5-8.9,24.2-15.6,35.2C263.4,362.3,265,363.2,265.7,362.2L265.7,362.2z"/>
	</g>
	<g opacity="0.25">
		<path fill="#E69E97" d="M318.7,269.5c3.1-5.7,8.4-8.5,12.8-13c3.3-3.3,5.3-7.3,7.8-11.2c6.5-10.2,17.6-16.7,22.5-27.9
			c0.3-0.8-0.5-1.5-1.2-0.9c-8.8,8-18.3,16.7-24.3,27.1c-3.5,6.1-6.9,10.5-11.9,15.4c-3.3,3.2-5.5,5.7-7.3,9.9
			C316.7,269.7,318.3,270.3,318.7,269.5L318.7,269.5z"/>
	</g>
	<g opacity="0.25">
		<path fill="#E69E97" d="M353,224.5c9.7-8.3,20.6-16.5,27.6-27.3c0.6-0.9-0.6-2-1.4-1.4c-11,6.8-19.5,17.4-28,26.9
			C350,223.9,351.8,225.6,353,224.5L353,224.5z"/>
	</g>
	<g opacity="0.25">
		<path fill="#E69E97" d="M380,192.8c5.3-5.7,10.6-11.1,14.6-17.8c3.1-5.1,6.8-12.2,4.8-18.2c-0.3-1-1.5-1.1-2.1-0.3
			c-3.8,5.1-5,12.3-8.2,17.9c-3.3,5.9-7,11.6-10.8,17.1C377.5,192.5,379.1,193.7,380,192.8L380,192.8z"/>
	</g>
	<g opacity="0.25">
		<path fill="#E69E97" d="M384.6,298c2.3-11.6,6.8-22.6,9.2-34.1c0.2-1.1-1.2-1.7-1.9-0.8c-7.1,10.4-8.9,22.3-10.2,34.5
			C381.6,299.2,384.3,299.6,384.6,298L384.6,298z"/>
	</g>
	<g opacity="0.25">
		<path fill="#E69E97" d="M435.1,193c0.3-0.3,0.5-0.6,0.8-1c0.2-0.3-0.1-0.7-0.4-0.4c-0.3,0.3-0.6,0.5-1,0.8
			C434,192.8,434.7,193.5,435.1,193L435.1,193z"/>
	</g>
	<g opacity="0.25">
		<path fill="#E69E97" d="M431.7,197.5c-1.2,1.4-2.6,2.8-3.5,4.5c-0.3,0.6,0.4,1.2,0.9,0.7c1.3-1.3,2.3-3,3.4-4.6
			C432.9,197.7,432.1,197,431.7,197.5L431.7,197.5z"/>
	</g>
	<g opacity="0.61">
		<path fill="#E69E97" d="M401.4,349.3c-7.3,15.8-15.3,31.7-21.2,48.1c-0.2,0.6,0.7,1,1.1,0.5c8.9-14.9,15.4-31.7,21.1-48.1
			C402.5,349.1,401.6,348.7,401.4,349.3L401.4,349.3z"/>
	</g>
	<g opacity="0.61">
		<path fill="#E69E97" d="M406.6,350.9c5-5.8,10.4-12.1,13.2-19.3c0.2-0.5-0.5-0.9-0.9-0.5c-5.7,5.1-9.8,12.3-13.5,18.9
			C405.1,350.7,406.1,351.6,406.6,350.9L406.6,350.9z"/>
	</g>
	<g opacity="0.61">
		<path fill="#E69E97" d="M429.6,312.5c7.1-12.4,16.3-23.5,22.2-36.6c0.4-0.8-0.7-1.8-1.3-1c-5.2,6.2-9.4,13.2-13.7,20.1
			c-3.4,5.4-7.4,10.8-8.2,17.2C428.5,312.8,429.3,312.9,429.6,312.5L429.6,312.5z"/>
	</g>
	<g opacity="0.61">
		<path fill="#E69E97" d="M403.6,352.2C403.6,352.2,403.6,352.1,403.6,352.2C403.5,352.1,403.5,352.2,403.6,352.2L403.6,352.2z"/>
	</g>
	<g opacity="0.61">
		<path fill="#E69E97" d="M410.1,339.6c-9.5,12-18,26.5-25.1,40.1c-0.3,0.5,0.4,0.9,0.8,0.4c9.2-12.1,18.7-26,25.4-39.7
			C411.6,339.8,410.7,338.9,410.1,339.6L410.1,339.6z"/>
	</g>
	<g opacity="0.61">
		<path fill="#E69E97" d="M337.4,310.3c-3.8,7.4-8.1,14.7-11.7,22.3c-0.3,0.6,0.5,1.4,1,0.8c5.5-6.6,9.1-14.6,11.7-22.7
			C338.7,310.2,337.7,309.7,337.4,310.3L337.4,310.3z"/>
	</g>
	<g opacity="0.61">
		<path fill="#E69E97" d="M315.2,377.3C315.2,377.3,315.2,377.2,315.2,377.3C315.1,377.2,315.1,377.3,315.2,377.3L315.2,377.3z"/>
	</g>
	<g opacity="0.61">
		<path fill="#E69E97" d="M203,443.3c-10.5,8.1-18.8,20.9-15.5,34.7c0.2,0.7,1.1,0.5,1.2-0.2c1.4-12.8,4.5-25.2,14.9-33.7
			C204,443.7,203.4,443,203,443.3L203,443.3z"/>
	</g>
	<g opacity="0.61">
		<path fill="#E69E97" d="M261.9,371.3c0.8-5.6,3.7-9.7,6-14.7c0.2-0.5-0.4-1.1-0.8-0.6c-4.1,3.6-5.5,9.9-6.2,15
			C260.7,371.7,261.8,372,261.9,371.3L261.9,371.3z"/>
	</g>
	<g opacity="0.61">
		<path fill="#E69E97" d="M53.1,361.4c-1.1-2.4,4-9.4,5.1-11.5c1.8-3.5,3.6-7,5.4-10.4c2.8-5.4,6.5-10.9,6.6-17.1
			c0-0.8-0.9-1.3-1.6-0.9c-5.6,3.5-8.5,10.3-11.4,16c-3.4,6.7-6.7,13.7-8.7,21c-0.4,1.5,0.7,2.6,2.1,2.7c0.5,0.3,1.1,0.6,1.6,0.9
			C52.7,362.5,53.4,362,53.1,361.4L53.1,361.4z"/>
	</g>
	<g opacity="0.61">
		<path fill="#E69E97" d="M59,354.1c8.1-17.1,21-30.8,29.9-47.7c9.9-18.8,16.3-38.3,24.1-58c0.1-0.3-0.4-0.6-0.6-0.2
			c-9.8,22.5-22.2,45.6-34.7,66.8c-6.3,10.7-25.2,25-19.7,39C58.2,354.3,58.8,354.5,59,354.1L59,354.1z"/>
	</g>
	<g opacity="0.61">
		<path fill="#E69E97" d="M103.9,273.8c4.3-18.6,18.3-30.9,25.2-47.9c0.2-0.5-0.6-1-1-0.6c-11,13.4-21.6,31-25.3,48.2
			C102.7,274.2,103.8,274.5,103.9,273.8L103.9,273.8z"/>
	</g>
	<g opacity="0.61">
		<path fill="#E69E97" d="M187.2,153.1c7.1-9.1,12.6-18.8,14.3-30.4c0.1-0.6-0.7-1.1-1.1-0.5c-5.1,9.7-9.9,19.6-16.2,28.6
			C183,152.6,185.8,154.8,187.2,153.1L187.2,153.1z"/>
	</g>
	<g opacity="0.61">
		<path fill="#E69E97" d="M189.2,144c-0.1,0.2-0.5,1.3-0.5,1.3c0.3,0.1,0.6,0.2,0.9,0.2c0-0.7,1.8-2.6,2.2-3.3
			c0.8-1.5,1.6-3,2.3-4.6c1.3-2.8,2.3-5.9,2.9-8.9c0.1-0.6-0.8-1.1-1.1-0.5c-1.4,3.1-3.1,6-4.7,9.1c-1.3,2.5-2.9,5-3.3,7.8
			c0,0.3,0.3,0.6,0.5,0.7c0.1,0,0.2,0.1,0.3,0.1c0.2,0.1,0.5,0,0.5-0.2c0.2-0.5,0.3-1,0.5-1.5C190.1,143.9,189.4,143.6,189.2,144
			L189.2,144z"/>
	</g>
	<g opacity="0.61">
		<path fill="#E69E97" d="M210.3,113.5c5.2-17.4,23.5-29.3,25.7-47.3c0.2-1.3-1.6-1.5-2.2-0.6c-5.8,8.1-11.3,16.4-16.9,24.7
			c-4.9,7.1-8.5,14.2-9.5,22.9C207.1,114.8,209.9,115.1,210.3,113.5L210.3,113.5z"/>
	</g>
	<g opacity="0.61">
		<path fill="#E69E97" d="M18.6,259.4c2.9-3.3,4.7-7.7,7.3-11.3c2.7-3.9,6.3-7.3,8.7-11.3c0.5-0.8-0.3-1.9-1.2-1.6
			c-8.1,3-16.9,14.5-16.9,23.3C16.5,259.5,17.9,260.2,18.6,259.4L18.6,259.4z"/>
	</g>
	<g opacity="0.61">
		<path fill="#E69E97" d="M18,257.8c27.2-28.7,53.5-59.6,77.3-91.1c0.4-0.5-0.4-1-0.8-0.6c-27.3,28.5-53.6,59.5-77.6,90.9
			C16.4,257.6,17.4,258.3,18,257.8L18,257.8z"/>
	</g>
	<g opacity="0.61">
		<path fill="#E69E97" d="M313.7,82.1c4.4-4.3,9.1-8.2,13.7-12.4c0.2-0.2-0.1-0.6-0.3-0.4c-5.2,3.4-9.7,7.7-14.1,12
			C312.4,81.8,313.2,82.6,313.7,82.1L313.7,82.1z"/>
	</g>
	<g opacity="0.61">
		<path fill="#E69E97" d="M363,207.4c-3.9,6.6-8.7,12.7-12.3,19.5c-0.5,0.9,0.7,1.8,1.4,1.1c5.9-5.2,10-12,14-18.7
			C367.3,207.2,364.2,205.4,363,207.4L363,207.4z"/>
	</g>
	<g opacity="0.75">
		<path fill="#FFFFFF" d="M192.5,137.3c-1.4,12.4-12.8,23.1-17.5,34.4c-0.2,0.6,0.7,1.1,1.1,0.6c5-6,8.7-12.9,12.7-19.6
			c2.9-5,5.6-9.5,4.9-15.4C193.5,136.5,192.6,136.5,192.5,137.3L192.5,137.3z"/>
	</g>
	<g opacity="0.75">
		<path fill="#FFFFFF" d="M211.1,103.9c3.6-6.3,8.9-10.2,13.7-15.4c0.5-0.5,0-1.5-0.7-1.2c-7,2.2-12.1,9.1-15.3,15.3
			C208,104.1,210.2,105.4,211.1,103.9L211.1,103.9z"/>
	</g>
	<g opacity="0.75">
		<path fill="#FFFFFF" d="M52.6,355.9c2.7-6.5,6.6-12.5,9.4-18.9c0.3-0.8-0.4-1.5-1.2-1.2c-7.1,3.4-10.6,12.3-10.2,19.8
			C50.7,356.8,52.2,356.9,52.6,355.9L52.6,355.9z"/>
	</g>
	<g opacity="0.75">
		<path fill="#FFFFFF" d="M59.8,356.6c8.3-11.1,13.7-24.5,21.3-36.1c0.4-0.5-0.5-1.2-0.9-0.7c-8.6,10.4-18.6,22.8-21.9,36.2
			C58.1,357,59.3,357.3,59.8,356.6L59.8,356.6z"/>
	</g>
	<g opacity="0.75">
		<path fill="#FFFFFF" d="M357.6,418.2c4-4.7,6.4-10.8,9.4-16.2c3.1-5.4,6.9-10.6,8.5-16.7c0.2-0.6-0.6-1-1-0.6
			c-4.5,4.4-7,10.4-9.9,15.9c-2.8,5.5-6.5,11-8,17C356.6,418.1,357.3,418.6,357.6,418.2L357.6,418.2z"/>
	</g>
	<g opacity="0.75">
		<path fill="#FFFFFF" d="M384.1,377.1c7.7-5.9,9.7-16.1,16.3-23c4.9-5.2,14.5-10.5,15.1-18.2c0.1-1-1.1-1.3-1.8-0.7
			c-3.1,2.6-4.6,6.4-7.2,9.5c-3,3.4-6.4,6.3-9.2,9.8c-5.5,6.8-8,15.2-14,21.7C382.8,376.6,383.5,377.6,384.1,377.1L384.1,377.1z"/>
	</g>
	<g opacity="0.75">
		<path fill="#FFFFFF" d="M359.9,217.2c-4.9,1.4-8.5,7.6-11.1,11.7c-3.6,5.5-6.3,11.8-7.5,18.3c-0.1,0.8,1,1.4,1.4,0.6
			c2.6-5.6,5.1-11.1,8.4-16.4c2.8-4.5,8-8.5,9.5-13.5C360.6,217.4,360.3,217,359.9,217.2L359.9,217.2z"/>
	</g>
</g>
</svg>
